<?xml version="1.0" encoding="UTF-8" standalone="no"?>
<!-- Created with Inkscape (http://www.inkscape.org/) -->

<svg
   xmlns:dc="http://purl.org/dc/elements/1.1/"
   xmlns:cc="http://creativecommons.org/ns#"
   xmlns:rdf="http://www.w3.org/1999/02/22-rdf-syntax-ns#"
   xmlns:svg="http://www.w3.org/2000/svg"
   xmlns="http://www.w3.org/2000/svg"
   version="1.1"
   width="723.97491"
   height="586.82819"
   id="svg2"
   xml:space="preserve"><metadata
     id="metadata8"><rdf:RDF><cc:Work
         rdf:about=""><dc:format>image/svg+xml</dc:format><dc:type
           rdf:resource="http://purl.org/dc/dcmitype/StillImage" /><dc:title></dc:title></cc:Work></rdf:RDF></metadata><defs
     id="defs6"><clipPath
       id="clipPath22"><path
         d="m 0,0 293.4,0 0,307.07 L 0,307.07 0,0 z"
         id="path24" /></clipPath><clipPath
       id="clipPath182"><path
         d="m 0.00125,-0.12134 595.44,0 0,842.04 -595.44,0 0,-842.04 z"
         id="path184" /></clipPath><clipPath
       id="clipPath218"><path
         d="m 0.00125,-0.12134 595.44,0 0,842.04 -595.44,0 0,-842.04 z"
         id="path220" /></clipPath><clipPath
       id="clipPath230"><path
         d="m 0.00125,-0.12134 595.44,0 0,842.04 -595.44,0 0,-842.04 z"
         id="path232" /></clipPath><clipPath
       id="clipPath242"><path
         d="m 0.00125,-0.12134 595.44,0 0,842.04 -595.44,0 0,-842.04 z"
         id="path244" /></clipPath><clipPath
       id="clipPath254"><path
         d="m 0.00125,-0.12134 595.44,0 0,842.04 -595.44,0 0,-842.04 z"
         id="path256" /></clipPath><clipPath
       id="clipPath266"><path
         d="m 0.00125,-0.12134 595.44,0 0,842.04 -595.44,0 0,-842.04 z"
         id="path268" /></clipPath><clipPath
       id="clipPath278"><path
         d="m 0.00125,-0.12134 595.44,0 0,842.04 -595.44,0 0,-842.04 z"
         id="path280" /></clipPath><clipPath
       id="clipPath290"><path
         d="m 0.00125,-0.12134 595.44,0 0,842.04 -595.44,0 0,-842.04 z"
         id="path292" /></clipPath><clipPath
       id="clipPath302"><path
         d="m 0.00125,-0.12134 595.44,0 0,842.04 -595.44,0 0,-842.04 z"
         id="path304" /></clipPath><clipPath
       id="clipPath314"><path
         d="m 0.00125,-0.12134 595.44,0 0,842.04 -595.44,0 0,-842.04 z"
         id="path316" /></clipPath><clipPath
       id="clipPath326"><path
         d="m 0.00125,-0.12134 595.44,0 0,842.04 -595.44,0 0,-842.04 z"
         id="path328" /></clipPath><clipPath
       id="clipPath338"><path
         d="m 0.00125,-0.12134 595.44,0 0,842.04 -595.44,0 0,-842.04 z"
         id="path340" /></clipPath><clipPath
       id="clipPath350"><path
         d="m 0.00125,-0.12134 595.44,0 0,842.04 -595.44,0 0,-842.04 z"
         id="path352" /></clipPath><clipPath
       id="clipPath362"><path
         d="m 0.00125,-0.12134 595.44,0 0,842.04 -595.44,0 0,-842.04 z"
         id="path364" /></clipPath><clipPath
       id="clipPath374"><path
         d="m 0.00125,-0.12134 595.44,0 0,842.04 -595.44,0 0,-842.04 z"
         id="path376" /></clipPath><clipPath
       id="clipPath386"><path
         d="m 0.00125,-0.12134 595.44,0 0,842.04 -595.44,0 0,-842.04 z"
         id="path388" /></clipPath><clipPath
       id="clipPath398"><path
         d="m 0.00125,-0.12134 595.44,0 0,842.04 -595.44,0 0,-842.04 z"
         id="path400" /></clipPath><clipPath
       id="clipPath410"><path
         d="m 0.00125,-0.12134 595.44,0 0,842.04 -595.44,0 0,-842.04 z"
         id="path412" /></clipPath><clipPath
       id="clipPath422"><path
         d="m 0.00125,-0.12134 595.44,0 0,842.04 -595.44,0 0,-842.04 z"
         id="path424" /></clipPath><clipPath
       id="clipPath434"><path
         d="m 0.00125,-0.12134 595.44,0 0,842.04 -595.44,0 0,-842.04 z"
         id="path436" /></clipPath><clipPath
       id="clipPath446"><path
         d="m 0.00125,-0.12134 595.44,0 0,842.04 -595.44,0 0,-842.04 z"
         id="path448" /></clipPath><clipPath
       id="clipPath458"><path
         d="m 0.00125,-0.12134 595.44,0 0,842.04 -595.44,0 0,-842.04 z"
         id="path460" /></clipPath><clipPath
       id="clipPath470"><path
         d="m 0.00125,-0.12134 595.44,0 0,842.04 -595.44,0 0,-842.04 z"
         id="path472" /></clipPath><clipPath
       id="clipPath482"><path
         d="m 0.00125,-0.12134 595.44,0 0,842.04 -595.44,0 0,-842.04 z"
         id="path484" /></clipPath><clipPath
       id="clipPath494"><path
         d="m 0.00125,-0.12134 595.44,0 0,842.04 -595.44,0 0,-842.04 z"
         id="path496" /></clipPath><clipPath
       id="clipPath506"><path
         d="m 0.00125,-0.12134 595.44,0 0,842.04 -595.44,0 0,-842.04 z"
         id="path508" /></clipPath><clipPath
       id="clipPath518"><path
         d="m 0.00125,-0.12134 595.44,0 0,842.04 -595.44,0 0,-842.04 z"
         id="path520" /></clipPath><clipPath
       id="clipPath530"><path
         d="m 0.00125,-0.12134 595.44,0 0,842.04 -595.44,0 0,-842.04 z"
         id="path532" /></clipPath></defs><g
     transform="matrix(1.25,0,0,-1.25,-10.149968,1012.3816)"
     id="g10"><g
       id="g14"><g
         transform="matrix(4.0705,0,0,4.2556,151.1,406.52)"
         id="g16"><g
           transform="scale(0.245407,0.234467)"
           id="g18"><g
             clip-path="url(#clipPath22)"
             id="g20"><path
               d="m 0.48,261.11 115.32,0 0,45.48 -115.32,0 0,-45.48 z"
               id="path26"
               style="fill:#f2f2f2;fill-opacity:1;fill-rule:evenodd;stroke:none" /><path
               d="m 0.48,261.11 115.32,0 0,45.48 -115.32,0 0,-45.48 z"
               id="path28"
               style="fill:none;stroke:#000000;stroke-width:0.95999998;stroke-linecap:butt;stroke-linejoin:miter;stroke-miterlimit:10;stroke-opacity:1;stroke-dasharray:none" /><text
               transform="matrix(1,0,0,-1,11.64,292.5)"
               id="text30"><tspan
                 x="0 2.5099199 6.36444 8.6154003 11.99184 17.260679 22.18092 24.431881 29.25252 34.521358 37.85796 43.146721 48.415562 51.891602 54.1824 58.016998 62.787842 66.164284 68.455078 73.704002 78.99276 81.034561 84.032516 89.301361 92.777397"
                 y="0"
                 id="tspan32"
                 style="font-size:9.96000004px;font-variant:normal;font-weight:normal;writing-mode:lr-tb;fill:#000000;fill-opacity:1;fill-rule:nonzero;stroke:none;font-family:Calibri;-inkscape-font-specification:Calibri">Is the authorisation for </tspan></text>
<text
               transform="matrix(1,0,0,-1,12.84,280.48)"
               id="text34"><tspan
                 x="0 4.7708402 10.06956 12.23088 17.00172 22.30044 27.569281 31.045321 36.32412 40.766281 45.68652 50.95536 53.206322 57.100681 60.437279 65.208122 68.584557 73.853401 77.190002 82.47876 85.954803 90.506523"
                 y="0"
                 id="tspan36"
                 style="font-size:9.96000004px;font-variant:normal;font-weight:normal;writing-mode:lr-tb;fill:#000000;fill-opacity:1;fill-rule:nonzero;stroke:none;font-family:Calibri;-inkscape-font-specification:Calibri">an approved statutory </tspan></text>
<text
               transform="matrix(1,0,0,-1,39.12,268.48)"
               id="text38"><tspan
                 x="0 5.2987199 10.59744 14.07348 19.3722 24.670919 28.5354 33.49548"
                 y="0"
                 id="tspan40"
                 style="font-size:9.96000004px;font-variant:normal;font-weight:normal;writing-mode:lr-tb;fill:#000000;fill-opacity:1;fill-rule:nonzero;stroke:none;font-family:Calibri;-inkscape-font-specification:Calibri">purpose?</tspan></text>
<path
               d="m 0.48,174.23 115.32,0 0,45.48 -115.32,0 0,-45.48 z"
               id="path42"
               style="fill:#f2f2f2;fill-opacity:1;fill-rule:evenodd;stroke:none" /><path
               d="m 0.48,174.23 115.32,0 0,45.48 -115.32,0 0,-45.48 z"
               id="path44"
               style="fill:none;stroke:#000000;stroke-width:0.95999998;stroke-linecap:butt;stroke-linejoin:miter;stroke-miterlimit:10;stroke-opacity:1;stroke-dasharray:none" /><text
               transform="matrix(1,0,0,-1,16.08,205.55)"
               id="text46"><tspan
                 x="0 6.2349601 11.0058 14.90016 17.151119 21.941879 24.103201 27.579241 32.499481 34.790279 39.700562 44.142719 48.913559 54.21228 57.548882 59.959202 64.530838 66.82164 72.050636 76.741798 79.0326 83.962799"
                 y="0"
                 id="tspan48"
                 style="font-size:9.96000004px;font-variant:normal;font-weight:normal;writing-mode:lr-tb;fill:#000000;fill-opacity:1;fill-rule:nonzero;stroke:none;font-family:Calibri;-inkscape-font-specification:Calibri">Has a relevant Single </tspan></text>
<text
               transform="matrix(1,0,0,-1,13.92,193.55)"
               id="text50"><tspan
                 x="0 5.1493201 10.42812 12.71892 17.9778 21.3144 23.49564 28.764481 31.76244 33.923759 39.232441 44.481361 49.750198 53.0868 57.89748 62.110561 65.447159 67.847519 73.116364 78.036598 82.956841 88.225677"
                 y="0"
                 id="tspan52"
                 style="font-size:9.96000004px;font-variant:normal;font-weight:normal;writing-mode:lr-tb;fill:#000000;fill-opacity:1;fill-rule:nonzero;stroke:none;font-family:Calibri;-inkscape-font-specification:Calibri">Point of Contact been </tspan></text>
<text
               transform="matrix(1,0,0,-1,36,181.53)"
               id="text54"><tspan
                 x="0 4.2130799 9.4619999 14.75076 18.59532 23.864161 26.154961 29.49156 34.451641 39.680641"
                 y="0"
                 id="tspan56"
                 style="font-size:9.96000004px;font-variant:normal;font-weight:normal;writing-mode:lr-tb;fill:#000000;fill-opacity:1;fill-rule:nonzero;stroke:none;font-family:Calibri;-inkscape-font-specification:Calibri">consulted?</tspan></text>
<path
               d="m 0.48,87.35 115.32,0 0,45.36 -115.32,0 0,-45.36 z"
               id="path58"
               style="fill:#f2f2f2;fill-opacity:1;fill-rule:evenodd;stroke:none" /><path
               d="m 0.48,87.35 115.32,0 0,45.36 -115.32,0 0,-45.36 z"
               id="path60"
               style="fill:none;stroke:#000000;stroke-width:0.95999998;stroke-linecap:butt;stroke-linejoin:miter;stroke-miterlimit:10;stroke-opacity:1;stroke-dasharray:none" /><text
               transform="matrix(1,0,0,-1,12.36,118.6)"
               id="text62"><tspan
                 x="0 2.5099199 6.36444 8.6154003 13.43604 15.59736 21.722759 26.633039 30.4776 32.768398 37.45956 42.68856 47.509201 50.845798 55.805882 61.054798 63.445202 68.594521 73.554604 77.03064 80.845322 86.114159 91.383003"
                 y="0"
                 id="tspan64"
                 style="font-size:9.96000004px;font-variant:normal;font-weight:normal;writing-mode:lr-tb;fill:#000000;fill-opacity:1;fill-rule:nonzero;stroke:none;font-family:Calibri;-inkscape-font-specification:Calibri">Is a Designated Person </tspan></text>
<text
               transform="matrix(1,0,0,-1,12.12,106.6)"
               id="text66"><tspan
                 x="0 3.8445599 8.6154003 11.99184 14.28264 18.107281 21.10524 23.39604 28.30632 33.575161 35.826118 38.11692 41.483398 43.73436 46.025162 49.879681 52.041 57.309841 62.23008 66.443161 71.353439 75.197998 79.042557 83.8134 87.309357 91.861076"
                 y="0"
                 id="tspan68"
                 style="font-size:9.96000004px;font-variant:normal;font-weight:normal;writing-mode:lr-tb;fill:#000000;fill-opacity:1;fill-rule:nonzero;stroke:none;font-family:Calibri;-inkscape-font-specification:Calibri">satisfied it is necessary </tspan></text>
<text
               transform="matrix(1,0,0,-1,18.36,94.598)"
               id="text70"><tspan
                 x="0 4.7708402 10.06956 15.3384 17.49972 22.76856 26.2446 31.523399 36.79224 42.061081 45.537121 48.873718 51.16452 56.453281 61.722118 66.492958 69.8694 74.789642"
                 y="0"
                 id="tspan72"
                 style="font-size:9.96000004px;font-variant:normal;font-weight:normal;writing-mode:lr-tb;fill:#000000;fill-opacity:1;fill-rule:nonzero;stroke:none;font-family:Calibri;-inkscape-font-specification:Calibri">and proportionate?</tspan></text>
<path
               d="m 0.48,0.46964 115.32,0 0,45.36 -115.32,0 0,-45.36 z"
               id="path74"
               style="fill:#f2f2f2;fill-opacity:1;fill-rule:evenodd;stroke:none" /><path
               d="m 0.48,0.46964 115.32,0 0,45.36 -115.32,0 0,-45.36 z"
               id="path76"
               style="fill:none;stroke:#000000;stroke-width:0.95999998;stroke-linecap:butt;stroke-linejoin:miter;stroke-miterlimit:10;stroke-opacity:1;stroke-dasharray:none" /><text
               transform="matrix(1,0,0,-1,22.08,25.646)"
               id="text78"><tspan
                 x="0 5.9959202 11.38428 16.77264 20.35824 25.746599 31.13496 34.720558 37.120918 42.041161 45.49728 50.547001 52.588799 54.989159 60.018959 64.700157 69.620399 72.02076"
                 y="0"
                 id="tspan80"
                 style="font-size:9.96000004px;font-variant:normal;font-weight:bold;writing-mode:lr-tb;fill:#838383;fill-opacity:1;fill-rule:nonzero;stroke:none;font-family:Calibri;-inkscape-font-specification:Calibri Bold">Appropriate legal </tspan></text>
<text
               transform="matrix(1,0,0,-1,8.52,13.646)"
               id="text82"><tspan
                 x="0 4.9202399 10.3086 13.76472 19.182961 24.57132 28.156919 30.55728 34.531319 39.451561 42.907681 45.318001 50.70636 56.094719 58.256039 60.656399 64.63044 67.01088 69.41124 74.799599 77.190002 82.578362 84.978722 89.898956 94.092117"
                 y="0"
                 id="tspan84"
                 style="font-size:9.96000004px;font-variant:normal;font-weight:bold;writing-mode:lr-tb;fill:#838383;fill-opacity:1;fill-rule:nonzero;stroke:none;font-family:Calibri;-inkscape-font-specification:Calibri Bold">authorisation is in place</tspan></text>
<path
               d="m 177.48,261.11 115.44,0 0,45.48 -115.44,0 0,-45.48 z"
               id="path86"
               style="fill:#f2f2f2;fill-opacity:1;fill-rule:evenodd;stroke:none" /><path
               d="m 177.48,261.11 115.44,0 0,45.48 -115.44,0 0,-45.48 z"
               id="path88"
               style="fill:none;stroke:#000000;stroke-width:0.95999998;stroke-linecap:butt;stroke-linejoin:miter;stroke-miterlimit:10;stroke-opacity:1;stroke-dasharray:none" /><text
               transform="matrix(1,0,0,-1,193.97,286.5)"
               id="text90"><tspan
                 x="0 4.6824961 9.6245756 16.323839 21.605375 24.36096 26.876928 32.038654 37.410049 42.83136 45.087746 53.264641 58.655998 62.639614 66.104065 68.360451 73.761795 79.133186 82.627586"
                 y="0"
                 id="tspan92"
                 style="font-size:9.98400021px;font-variant:normal;font-weight:bold;writing-mode:lr-tb;fill:#6b6b6b;fill-opacity:1;fill-rule:nonzero;stroke:none;font-family:Calibri;-inkscape-font-specification:Calibri Bold">STOP: You must not </tspan></text>
<text
               transform="matrix(1,0,0,-1,209.45,274.48)"
               id="text94"><tspan
                 x="0 4.9202399 9.1134005 14.50176 19.89012 22.29048 25.87608 30.90588 32.947681 38.33604 43.256279 46.712399"
                 y="0"
                 id="tspan96"
                 style="font-size:9.96000004px;font-variant:normal;font-weight:bold;writing-mode:lr-tb;fill:#6b6b6b;fill-opacity:1;fill-rule:nonzero;stroke:none;font-family:Calibri;-inkscape-font-specification:Calibri Bold">acquire data</tspan></text>
<path
               d="m 115.8,284.15 56.75,0 0,-0.48 -56.75,0 0,0.48 z m 55.75,2.76 6,-3 -6,-3 0,6 z"
               id="path98"
               style="fill:#000000;fill-opacity:1;fill-rule:nonzero;stroke:none" /><path
               d="m 177.48,174.23 115.44,0 0,45.48 -115.44,0 0,-45.48 z"
               id="path100"
               style="fill:#f2f2f2;fill-opacity:1;fill-rule:evenodd;stroke:none" /><path
               d="m 177.48,174.23 115.44,0 0,45.48 -115.44,0 0,-45.48 z"
               id="path102"
               style="fill:none;stroke:#000000;stroke-width:0.95999998;stroke-linecap:butt;stroke-linejoin:miter;stroke-miterlimit:10;stroke-opacity:1;stroke-dasharray:none" /><text
               transform="matrix(1,0,0,-1,193.97,199.55)"
               id="text104"><tspan
                 x="0 4.6812 9.6113997 16.34436 21.603239 24.3522 26.87208 32.051281 37.40976 42.818039 45.069 53.246159 58.634521 62.608559 66.064682 68.34552 73.733879 79.122238 82.578362"
                 y="0"
                 id="tspan106"
                 style="font-size:9.96000004px;font-variant:normal;font-weight:bold;writing-mode:lr-tb;fill:#6b6b6b;fill-opacity:1;fill-rule:nonzero;stroke:none;font-family:Calibri;-inkscape-font-specification:Calibri Bold">STOP: You must not </tspan></text>
<text
               transform="matrix(1,0,0,-1,209.45,187.55)"
               id="text108"><tspan
                 x="0 4.932096 9.1054077 14.506752 19.898111 22.294271 25.888512 30.910463 32.967167 38.358528 43.290623 46.755074"
                 y="0"
                 id="tspan110"
                 style="font-size:9.98400021px;font-variant:normal;font-weight:bold;writing-mode:lr-tb;fill:#6b6b6b;fill-opacity:1;fill-rule:nonzero;stroke:none;font-family:Calibri;-inkscape-font-specification:Calibri Bold">acquire data</tspan></text>
<path
               d="m 177.48,87.35 115.44,0 0,45.36 -115.44,0 0,-45.36 z"
               id="path112"
               style="fill:#f2f2f2;fill-opacity:1;fill-rule:evenodd;stroke:none" /><path
               d="m 177.48,87.35 115.44,0 0,45.36 -115.44,0 0,-45.36 z"
               id="path114"
               style="fill:none;stroke:#000000;stroke-width:0.95999998;stroke-linecap:butt;stroke-linejoin:miter;stroke-miterlimit:10;stroke-opacity:1;stroke-dasharray:none" /><text
               transform="matrix(1,0,0,-1,193.97,112.6)"
               id="text116"><tspan
                 x="0 4.6812 9.6113997 16.34436 21.603239 24.3522 26.87208 32.051281 37.40976 42.818039 45.069 53.246159 58.634521 62.608559 66.064682 68.34552 73.733879 79.122238 82.578362"
                 y="0"
                 id="tspan118"
                 style="font-size:9.96000004px;font-variant:normal;font-weight:bold;writing-mode:lr-tb;fill:#6b6b6b;fill-opacity:1;fill-rule:nonzero;stroke:none;font-family:Calibri;-inkscape-font-specification:Calibri Bold">STOP: You must not </tspan></text>
<text
               transform="matrix(1,0,0,-1,209.45,100.6)"
               id="text120"><tspan
                 x="0 4.9202399 9.1134005 14.50176 19.89012 22.29048 25.87608 30.90588 32.947681 38.33604 43.256279 46.712399"
                 y="0"
                 id="tspan122"
                 style="font-size:9.96000004px;font-variant:normal;font-weight:bold;writing-mode:lr-tb;fill:#6b6b6b;fill-opacity:1;fill-rule:nonzero;stroke:none;font-family:Calibri;-inkscape-font-specification:Calibri Bold">acquire data</tspan></text>
<path
               d="m 115.8,196.67 56.75,0 0,0.48 -56.75,0 0,-0.48 z m 55.75,-2.76 6,3 -6,3 0,-6 z"
               id="path124"
               style="fill:#000000;fill-opacity:1;fill-rule:nonzero;stroke:none" /><path
               d="m 115.8,109.79 56.75,0 0,0.48 -56.75,0 0,-0.48 z m 55.75,-2.76 6,3 -6,3 0,-6 z"
               id="path126"
               style="fill:#000000;fill-opacity:1;fill-rule:nonzero;stroke:none" /><path
               d="m 58.32,261.11 0,-36.47 -0.48,0 0,36.47 0.48,0 z m 2.76,-35.47 -3,-6 -3,6 6,0 z"
               id="path128"
               style="fill:#000000;fill-opacity:1;fill-rule:nonzero;stroke:none" /><path
               d="m 58.32,174.23 0,-36.47 -0.48,0 0,36.47 0.48,0 z m 2.76,-35.47 -3,-6 -3,6 6,0 z"
               id="path130"
               style="fill:#000000;fill-opacity:1;fill-rule:nonzero;stroke:none" /><path
               d="m 58.32,87.35 0,-36.472 -0.48,0 0,36.472 0.48,0 z m 2.76,-35.472 -3,-6 -3,6 6,0 z"
               id="path132"
               style="fill:#000000;fill-opacity:1;fill-rule:nonzero;stroke:none" /><path
               d="m 132.12,274.79 29.04,0 0,18.12 -29.04,0 0,-18.12 z"
               id="path134"
               style="fill:#ffffff;fill-opacity:1;fill-rule:evenodd;stroke:none" /><text
               transform="matrix(1,0,0,-1,140.86,280.93)"
               id="text136"><tspan
                 x="0 5.7600002"
                 y="0"
                 id="tspan138"
                 style="font-size:9px;font-variant:normal;font-weight:normal;writing-mode:lr-tb;fill:#000000;fill-opacity:1;fill-rule:nonzero;stroke:none;font-family:Calibri;-inkscape-font-specification:Calibri">NO</tspan></text>
<path
               d="m 132.12,188.15 29.04,0 0,18.12 -29.04,0 0,-18.12 z"
               id="path140"
               style="fill:#ffffff;fill-opacity:1;fill-rule:evenodd;stroke:none" /><text
               transform="matrix(1,0,0,-1,140.86,194.27)"
               id="text142"><tspan
                 x="0 5.7600002"
                 y="0"
                 id="tspan144"
                 style="font-size:9px;font-variant:normal;font-weight:normal;writing-mode:lr-tb;fill:#000000;fill-opacity:1;fill-rule:nonzero;stroke:none;font-family:Calibri;-inkscape-font-specification:Calibri">NO</tspan></text>
<path
               d="m 132.12,101.27 29.04,0 0,18.12 -29.04,0 0,-18.12 z"
               id="path146"
               style="fill:#ffffff;fill-opacity:1;fill-rule:evenodd;stroke:none" /><text
               transform="matrix(1,0,0,-1,140.86,107.34)"
               id="text148"><tspan
                 x="0 5.760004"
                 y="0"
                 id="tspan150"
                 style="font-size:9.02400017px;font-variant:normal;font-weight:normal;writing-mode:lr-tb;fill:#000000;fill-opacity:1;fill-rule:nonzero;stroke:none;font-family:Calibri;-inkscape-font-specification:Calibri">NO</tspan></text>
<path
               d="m 43.56,233.27 29.04,0 0,18.24 -29.04,0 0,-18.24 z"
               id="path152"
               style="fill:#ffffff;fill-opacity:1;fill-rule:evenodd;stroke:none" /><text
               transform="matrix(1,0,0,-1,51.672,239.44)"
               id="text154"><tspan
                 x="0 4.4400001 8.8889999"
                 y="0"
                 id="tspan156"
                 style="font-size:9px;font-variant:normal;font-weight:normal;writing-mode:lr-tb;fill:#000000;fill-opacity:1;fill-rule:nonzero;stroke:none;font-family:Calibri;-inkscape-font-specification:Calibri">YES</tspan></text>
<path
               d="m 43.56,146.39 29.04,0 0,18.12 -29.04,0 0,-18.12 z"
               id="path158"
               style="fill:#ffffff;fill-opacity:1;fill-rule:evenodd;stroke:none" /><text
               transform="matrix(1,0,0,-1,51.672,152.51)"
               id="text160"><tspan
                 x="0 4.4399881 8.8889999"
                 y="0"
                 id="tspan162"
                 style="font-size:9.02400017px;font-variant:normal;font-weight:normal;writing-mode:lr-tb;fill:#000000;fill-opacity:1;fill-rule:nonzero;stroke:none;font-family:Calibri;-inkscape-font-specification:Calibri">YES</tspan></text>
<path
               d="m 43.56,59.39 29.04,0 0,18.12 -29.04,0 0,-18.12 z"
               id="path164"
               style="fill:#ffffff;fill-opacity:1;fill-rule:evenodd;stroke:none" /><text
               transform="matrix(1,0,0,-1,51.672,65.438)"
               id="text166"><tspan
                 x="0 4.4400001 8.8889999"
                 y="0"
                 id="tspan168"
                 style="font-size:9px;font-variant:normal;font-weight:normal;writing-mode:lr-tb;fill:#000000;fill-opacity:1;fill-rule:nonzero;stroke:none;font-family:Calibri;-inkscape-font-specification:Calibri">YES</tspan></text>
<path
               d="m 43.56,231.35 29.04,0 0,18.12 -29.04,0 0,-18.12 z"
               id="path170"
               style="fill:#ffffff;fill-opacity:1;fill-rule:evenodd;stroke:none" /><text
               transform="matrix(1,0,0,-1,51.672,237.47)"
               id="text172"><tspan
                 x="0 4.4400001 8.8889999"
                 y="0"
                 id="tspan174"
                 style="font-size:9px;font-variant:normal;font-weight:normal;writing-mode:lr-tb;fill:#000000;fill-opacity:1;fill-rule:nonzero;stroke:none;font-family:Calibri;-inkscape-font-specification:Calibri">YES</tspan></text>
</g></g><g
           transform="matrix(0.24567,0,0,0.23498,-37.12075,-95.5259)"
           id="g176"><g
             id="g178"><g
               clip-path="url(#clipPath182)"
               id="g180"><path
                 d="m 48.12,769.44 0.48,0 0,0.48 -0.48,0 0,-0.48 z"
                 id="path186"
                 style="fill:#000000;fill-opacity:1;fill-rule:evenodd;stroke:none" /><path
                 d="m 48.12,769.44 0.48,0 0,0.48 -0.48,0 0,-0.48 z"
                 id="path188"
                 style="fill:#000000;fill-opacity:1;fill-rule:evenodd;stroke:none" /><path
                 d="m 48.6,769.44 498.22,0 0,0.48 -498.22,0 0,-0.48 z"
                 id="path190"
                 style="fill:#000000;fill-opacity:1;fill-rule:evenodd;stroke:none" /><path
                 d="m 546.82,769.44 0.48004,0 0,0.48 -0.48004,0 0,-0.48 z"
                 id="path192"
                 style="fill:#000000;fill-opacity:1;fill-rule:evenodd;stroke:none" /><path
                 d="m 546.82,769.44 0.48004,0 0,0.48 -0.48004,0 0,-0.48 z"
                 id="path194"
                 style="fill:#000000;fill-opacity:1;fill-rule:evenodd;stroke:none" /><path
                 d="m 48.12,754.68 0.48,0 0,14.76 -0.48,0 0,-14.76 z"
                 id="path196"
                 style="fill:#000000;fill-opacity:1;fill-rule:evenodd;stroke:none" /><path
                 d="m 546.82,754.68 0.48004,0 0,14.76 -0.48004,0 0,-14.76 z"
                 id="path198"
                 style="fill:#000000;fill-opacity:1;fill-rule:evenodd;stroke:none" /></g></g><text
             transform="matrix(1,0,0,-1,54,743.62)"
             id="text200"><tspan
               x="0 3.336 11.388 14.724 23.388 26.724001 30.096001 33.335999 37.403999"
               y="0"
               id="tspan202"
               style="font-size:12px;font-variant:normal;font-weight:bold;writing-mode:lr-tb;fill:#000000;fill-opacity:1;fill-rule:nonzero;stroke:none;font-family:Arial;-inkscape-font-specification:Arial Bold">IP Bill: </tspan></text>
<text
             transform="matrix(1,0,0,-1,94.824,743.62)"
             id="text204"><tspan
               x="0 8.6639996 15.996 26.664 37.332001 44.664001 51.995998 55.332001 61.919998 68.627998 72.624001 75.828003 83.160004 90.491997 97.164001 100.536 109.2 115.872 119.868"
               y="0"
               id="tspan206"
               style="font-size:12px;font-variant:normal;font-weight:bold;writing-mode:lr-tb;fill:#000000;fill-opacity:1;fill-rule:nonzero;stroke:none;font-family:Arial;-inkscape-font-specification:Arial Bold">Communications Data</tspan></text>
<text
             transform="matrix(1,0,0,-1,224.93,743.62)"
             id="text208"><tspan
               x="0 8.2799997 15.708 19.704 26.988001 34.32 38.987999 42.324001 49.056 55.764 59.759998 63.096001 70.428001 77.760002"
               y="0"
               id="tspan210"
               style="font-size:12px;font-variant:normal;font-weight:bold;writing-mode:lr-tb;fill:#000000;fill-opacity:1;fill-rule:nonzero;stroke:none;font-family:Arial;-inkscape-font-specification:Arial Bold">Authorisations</tspan></text>
<path
             d="m 54,741.1 255.41,0 0,1.2 -255.41,0 0,-1.2 z"
             id="path212"
             style="fill:#000000;fill-opacity:1;fill-rule:evenodd;stroke:none" /><g
             id="g214"><g
               clip-path="url(#clipPath218)"
               id="g216"><path
                 d="m 48.12,740.86 0.48,0 0,13.824 -0.48,0 0,-13.824 z"
                 id="path222"
                 style="fill:#000000;fill-opacity:1;fill-rule:evenodd;stroke:none" /><path
                 d="m 546.82,740.86 0.48004,0 0,13.824 -0.48004,0 0,-13.824 z"
                 id="path224"
                 style="fill:#000000;fill-opacity:1;fill-rule:evenodd;stroke:none" /></g></g><g
             id="g226"><g
               clip-path="url(#clipPath230)"
               id="g228"><path
                 d="m 48.12,727.06 0.48,0 0,13.8 -0.48,0 0,-13.8 z"
                 id="path234"
                 style="fill:#000000;fill-opacity:1;fill-rule:evenodd;stroke:none" /><path
                 d="m 546.82,727.06 0.48004,0 0,13.8 -0.48004,0 0,-13.8 z"
                 id="path236"
                 style="fill:#000000;fill-opacity:1;fill-rule:evenodd;stroke:none" /></g></g><g
             id="g238"><g
               clip-path="url(#clipPath242)"
               id="g240"><path
                 d="m 48.12,713.26 0.48,0 0,13.8 -0.48,0 0,-13.8 z"
                 id="path246"
                 style="fill:#000000;fill-opacity:1;fill-rule:evenodd;stroke:none" /><path
                 d="m 546.82,713.26 0.48004,0 0,13.8 -0.48004,0 0,-13.8 z"
                 id="path248"
                 style="fill:#000000;fill-opacity:1;fill-rule:evenodd;stroke:none" /></g></g><g
             id="g250"><g
               clip-path="url(#clipPath254)"
               id="g252"><path
                 d="m 48.12,699.46 0.48,0 0,13.8 -0.48,0 0,-13.8 z"
                 id="path258"
                 style="fill:#000000;fill-opacity:1;fill-rule:evenodd;stroke:none" /><path
                 d="m 546.82,699.46 0.48004,0 0,13.8 -0.48004,0 0,-13.8 z"
                 id="path260"
                 style="fill:#000000;fill-opacity:1;fill-rule:evenodd;stroke:none" /></g></g><g
             id="g262"><g
               clip-path="url(#clipPath266)"
               id="g264"><path
                 d="m 48.12,685.66 0.48,0 0,13.8 -0.48,0 0,-13.8 z"
                 id="path270"
                 style="fill:#000000;fill-opacity:1;fill-rule:evenodd;stroke:none" /><path
                 d="m 546.82,685.66 0.48004,0 0,13.8 -0.48004,0 0,-13.8 z"
                 id="path272"
                 style="fill:#000000;fill-opacity:1;fill-rule:evenodd;stroke:none" /></g></g><g
             id="g274"><g
               clip-path="url(#clipPath278)"
               id="g276"><path
                 d="m 48.12,671.86 0.48,0 0,13.8 -0.48,0 0,-13.8 z"
                 id="path282"
                 style="fill:#000000;fill-opacity:1;fill-rule:evenodd;stroke:none" /><path
                 d="m 546.82,671.86 0.48004,0 0,13.8 -0.48004,0 0,-13.8 z"
                 id="path284"
                 style="fill:#000000;fill-opacity:1;fill-rule:evenodd;stroke:none" /></g></g><g
             id="g286"><g
               clip-path="url(#clipPath290)"
               id="g288"><path
                 d="m 48.12,658.06 0.48,0 0,13.8 -0.48,0 0,-13.8 z"
                 id="path294"
                 style="fill:#000000;fill-opacity:1;fill-rule:evenodd;stroke:none" /><path
                 d="m 546.82,658.06 0.48004,0 0,13.8 -0.48004,0 0,-13.8 z"
                 id="path296"
                 style="fill:#000000;fill-opacity:1;fill-rule:evenodd;stroke:none" /></g></g><g
             id="g298"><g
               clip-path="url(#clipPath302)"
               id="g300"><path
                 d="m 48.12,644.26 0.48,0 0,13.8 -0.48,0 0,-13.8 z"
                 id="path306"
                 style="fill:#000000;fill-opacity:1;fill-rule:evenodd;stroke:none" /><path
                 d="m 546.82,644.26 0.48004,0 0,13.8 -0.48004,0 0,-13.8 z"
                 id="path308"
                 style="fill:#000000;fill-opacity:1;fill-rule:evenodd;stroke:none" /></g></g><g
             id="g310"><g
               clip-path="url(#clipPath314)"
               id="g312"><path
                 d="m 48.12,630.46 0.48,0 0,13.8 -0.48,0 0,-13.8 z"
                 id="path318"
                 style="fill:#000000;fill-opacity:1;fill-rule:evenodd;stroke:none" /><path
                 d="m 546.82,630.46 0.48004,0 0,13.8 -0.48004,0 0,-13.8 z"
                 id="path320"
                 style="fill:#000000;fill-opacity:1;fill-rule:evenodd;stroke:none" /></g></g><g
             id="g322"><g
               clip-path="url(#clipPath326)"
               id="g324"><path
                 d="m 48.12,616.66 0.48,0 0,13.8 -0.48,0 0,-13.8 z"
                 id="path330"
                 style="fill:#000000;fill-opacity:1;fill-rule:evenodd;stroke:none" /><path
                 d="m 546.82,616.66 0.48004,0 0,13.8 -0.48004,0 0,-13.8 z"
                 id="path332"
                 style="fill:#000000;fill-opacity:1;fill-rule:evenodd;stroke:none" /></g></g><g
             id="g334"><g
               clip-path="url(#clipPath338)"
               id="g336"><path
                 d="m 48.12,602.86 0.48,0 0,13.8 -0.48,0 0,-13.8 z"
                 id="path342"
                 style="fill:#000000;fill-opacity:1;fill-rule:evenodd;stroke:none" /><path
                 d="m 546.82,602.86 0.48004,0 0,13.8 -0.48004,0 0,-13.8 z"
                 id="path344"
                 style="fill:#000000;fill-opacity:1;fill-rule:evenodd;stroke:none" /></g></g><g
             id="g346"><g
               clip-path="url(#clipPath350)"
               id="g348"><path
                 d="m 48.12,589.06 0.48,0 0,13.8 -0.48,0 0,-13.8 z"
                 id="path354"
                 style="fill:#000000;fill-opacity:1;fill-rule:evenodd;stroke:none" /><path
                 d="m 546.82,589.06 0.48004,0 0,13.8 -0.48004,0 0,-13.8 z"
                 id="path356"
                 style="fill:#000000;fill-opacity:1;fill-rule:evenodd;stroke:none" /></g></g><g
             id="g358"><g
               clip-path="url(#clipPath362)"
               id="g360"><path
                 d="m 48.12,575.26 0.48,0 0,13.8 -0.48,0 0,-13.8 z"
                 id="path366"
                 style="fill:#000000;fill-opacity:1;fill-rule:evenodd;stroke:none" /><path
                 d="m 546.82,575.26 0.48004,0 0,13.8 -0.48004,0 0,-13.8 z"
                 id="path368"
                 style="fill:#000000;fill-opacity:1;fill-rule:evenodd;stroke:none" /></g></g><g
             id="g370"><g
               clip-path="url(#clipPath374)"
               id="g372"><path
                 d="m 48.12,561.43 0.48,0 0,13.824 -0.48,0 0,-13.824 z"
                 id="path378"
                 style="fill:#000000;fill-opacity:1;fill-rule:evenodd;stroke:none" /><path
                 d="m 546.82,561.43 0.48004,0 0,13.824 -0.48004,0 0,-13.824 z"
                 id="path380"
                 style="fill:#000000;fill-opacity:1;fill-rule:evenodd;stroke:none" /></g></g><g
             id="g382"><g
               clip-path="url(#clipPath386)"
               id="g384"><path
                 d="m 48.12,547.63 0.48,0 0,13.8 -0.48,0 0,-13.8 z"
                 id="path390"
                 style="fill:#000000;fill-opacity:1;fill-rule:evenodd;stroke:none" /><path
                 d="m 546.82,547.63 0.48004,0 0,13.8 -0.48004,0 0,-13.8 z"
                 id="path392"
                 style="fill:#000000;fill-opacity:1;fill-rule:evenodd;stroke:none" /></g></g><g
             id="g394"><g
               clip-path="url(#clipPath398)"
               id="g396"><path
                 d="m 48.12,533.83 0.48,0 0,13.8 -0.48,0 0,-13.8 z"
                 id="path402"
                 style="fill:#000000;fill-opacity:1;fill-rule:evenodd;stroke:none" /><path
                 d="m 546.82,533.83 0.48004,0 0,13.8 -0.48004,0 0,-13.8 z"
                 id="path404"
                 style="fill:#000000;fill-opacity:1;fill-rule:evenodd;stroke:none" /></g></g><g
             id="g406"><g
               clip-path="url(#clipPath410)"
               id="g408"><path
                 d="m 48.12,520.03 0.48,0 0,13.8 -0.48,0 0,-13.8 z"
                 id="path414"
                 style="fill:#000000;fill-opacity:1;fill-rule:evenodd;stroke:none" /><path
                 d="m 546.82,520.03 0.48004,0 0,13.8 -0.48004,0 0,-13.8 z"
                 id="path416"
                 style="fill:#000000;fill-opacity:1;fill-rule:evenodd;stroke:none" /></g></g><g
             id="g418"><g
               clip-path="url(#clipPath422)"
               id="g420"><path
                 d="m 48.12,506.23 0.48,0 0,13.8 -0.48,0 0,-13.8 z"
                 id="path426"
                 style="fill:#000000;fill-opacity:1;fill-rule:evenodd;stroke:none" /><path
                 d="m 546.82,506.23 0.48004,0 0,13.8 -0.48004,0 0,-13.8 z"
                 id="path428"
                 style="fill:#000000;fill-opacity:1;fill-rule:evenodd;stroke:none" /></g></g><g
             id="g430"><g
               clip-path="url(#clipPath434)"
               id="g432"><path
                 d="m 48.12,492.43 0.48,0 0,13.8 -0.48,0 0,-13.8 z"
                 id="path438"
                 style="fill:#000000;fill-opacity:1;fill-rule:evenodd;stroke:none" /><path
                 d="m 546.82,492.43 0.48004,0 0,13.8 -0.48004,0 0,-13.8 z"
                 id="path440"
                 style="fill:#000000;fill-opacity:1;fill-rule:evenodd;stroke:none" /></g></g><g
             id="g442"><g
               clip-path="url(#clipPath446)"
               id="g444"><path
                 d="m 48.12,478.63 0.48,0 0,13.8 -0.48,0 0,-13.8 z"
                 id="path450"
                 style="fill:#000000;fill-opacity:1;fill-rule:evenodd;stroke:none" /><path
                 d="m 546.82,478.63 0.48004,0 0,13.8 -0.48004,0 0,-13.8 z"
                 id="path452"
                 style="fill:#000000;fill-opacity:1;fill-rule:evenodd;stroke:none" /></g></g><g
             id="g454"><g
               clip-path="url(#clipPath458)"
               id="g456"><path
                 d="m 48.12,464.83 0.48,0 0,13.8 -0.48,0 0,-13.8 z"
                 id="path462"
                 style="fill:#000000;fill-opacity:1;fill-rule:evenodd;stroke:none" /><path
                 d="m 546.82,464.83 0.48004,0 0,13.8 -0.48004,0 0,-13.8 z"
                 id="path464"
                 style="fill:#000000;fill-opacity:1;fill-rule:evenodd;stroke:none" /></g></g><g
             id="g466"><g
               clip-path="url(#clipPath470)"
               id="g468"><path
                 d="m 48.12,451.03 0.48,0 0,13.8 -0.48,0 0,-13.8 z"
                 id="path474"
                 style="fill:#000000;fill-opacity:1;fill-rule:evenodd;stroke:none" /><path
                 d="m 546.82,451.03 0.48004,0 0,13.8 -0.48004,0 0,-13.8 z"
                 id="path476"
                 style="fill:#000000;fill-opacity:1;fill-rule:evenodd;stroke:none" /></g></g><g
             id="g478"><g
               clip-path="url(#clipPath482)"
               id="g480"><path
                 d="m 48.12,437.23 0.48,0 0,13.8 -0.48,0 0,-13.8 z"
                 id="path486"
                 style="fill:#000000;fill-opacity:1;fill-rule:evenodd;stroke:none" /><path
                 d="m 546.82,437.23 0.48004,0 0,13.8 -0.48004,0 0,-13.8 z"
                 id="path488"
                 style="fill:#000000;fill-opacity:1;fill-rule:evenodd;stroke:none" /></g></g><g
             id="g490"><g
               clip-path="url(#clipPath494)"
               id="g492"><path
                 d="m 48.12,423.43 0.48,0 0,13.8 -0.48,0 0,-13.8 z"
                 id="path498"
                 style="fill:#000000;fill-opacity:1;fill-rule:evenodd;stroke:none" /><path
                 d="m 546.82,423.43 0.48004,0 0,13.8 -0.48004,0 0,-13.8 z"
                 id="path500"
                 style="fill:#000000;fill-opacity:1;fill-rule:evenodd;stroke:none" /></g></g><g
             id="g502"><g
               clip-path="url(#clipPath506)"
               id="g504"><path
                 d="m 48.12,409.63 0.48,0 0,13.8 -0.48,0 0,-13.8 z"
                 id="path510"
                 style="fill:#000000;fill-opacity:1;fill-rule:evenodd;stroke:none" /><path
                 d="m 546.82,409.63 0.48004,0 0,13.8 -0.48004,0 0,-13.8 z"
                 id="path512"
                 style="fill:#000000;fill-opacity:1;fill-rule:evenodd;stroke:none" /></g></g><g
             id="g514"><g
               clip-path="url(#clipPath518)"
               id="g516"><path
                 d="m 48.12,395.83 0.48,0 0,13.8 -0.48,0 0,-13.8 z"
                 id="path522"
                 style="fill:#000000;fill-opacity:1;fill-rule:evenodd;stroke:none" /><path
                 d="m 546.82,395.83 0.48004,0 0,13.8 -0.48004,0 0,-13.8 z"
                 id="path524"
                 style="fill:#000000;fill-opacity:1;fill-rule:evenodd;stroke:none" /></g></g><g
             id="g526"><g
               clip-path="url(#clipPath530)"
               id="g528"><path
                 d="m 48.12,380.45 0.48,0 0,0.48001 -0.48,0 0,-0.48001 z"
                 id="path534"
                 style="fill:#000000;fill-opacity:1;fill-rule:evenodd;stroke:none" /><path
                 d="m 48.12,380.45 0.48,0 0,0.48001 -0.48,0 0,-0.48001 z"
                 id="path536"
                 style="fill:#000000;fill-opacity:1;fill-rule:evenodd;stroke:none" /><path
                 d="m 48.6,380.45 498.22,0 0,0.48001 -498.22,0 0,-0.48001 z"
                 id="path538"
                 style="fill:#000000;fill-opacity:1;fill-rule:evenodd;stroke:none" /><path
                 d="m 546.82,380.45 0.48004,0 0,0.48001 -0.48004,0 0,-0.48001 z"
                 id="path540"
                 style="fill:#000000;fill-opacity:1;fill-rule:evenodd;stroke:none" /><path
                 d="m 546.82,380.45 0.48004,0 0,0.48001 -0.48004,0 0,-0.48001 z"
                 id="path542"
                 style="fill:#000000;fill-opacity:1;fill-rule:evenodd;stroke:none" /><path
                 d="m 48.12,380.93 0.48,0 0,14.904 -0.48,0 0,-14.904 z"
                 id="path544"
                 style="fill:#000000;fill-opacity:1;fill-rule:evenodd;stroke:none" /><path
                 d="m 546.82,380.93 0.48004,0 0,14.904 -0.48004,0 0,-14.904 z"
                 id="path546"
                 style="fill:#000000;fill-opacity:1;fill-rule:evenodd;stroke:none" /></g></g></g></g></g></g></svg>
