<?xml version="1.0" encoding="UTF-8" standalone="no"?>
<!-- Created with Inkscape (http://www.inkscape.org/) -->

<svg
   xmlns:dc="http://purl.org/dc/elements/1.1/"
   xmlns:cc="http://creativecommons.org/ns#"
   xmlns:rdf="http://www.w3.org/1999/02/22-rdf-syntax-ns#"
   xmlns:svg="http://www.w3.org/2000/svg"
   xmlns="http://www.w3.org/2000/svg"
   version="1.1"
   width="723.97504"
   height="573.46252"
   id="svg6451"
   xml:space="preserve"><metadata
     id="metadata6457"><rdf:RDF><cc:Work
         rdf:about=""><dc:format>image/svg+xml</dc:format><dc:type
           rdf:resource="http://purl.org/dc/dcmitype/StillImage" /><dc:title></dc:title></cc:Work></rdf:RDF></metadata><defs
     id="defs6455"><clipPath
       id="clipPath6467"><path
         d="m 0.00125,-0.12134 595.44,0 0,842.04 -595.44,0 0,-842.04 z"
         id="path6469" /></clipPath><clipPath
       id="clipPath6503"><path
         d="m 0.00125,-0.12134 595.44,0 0,842.04 -595.44,0 0,-842.04 z"
         id="path6505" /></clipPath><clipPath
       id="clipPath6515"><path
         d="m 0.00125,-0.12134 595.44,0 0,842.04 -595.44,0 0,-842.04 z"
         id="path6517" /></clipPath><clipPath
       id="clipPath6527"><path
         d="m 0.00125,-0.12134 595.44,0 0,842.04 -595.44,0 0,-842.04 z"
         id="path6529" /></clipPath><clipPath
       id="clipPath6539"><path
         d="m 0.00125,-0.12134 595.44,0 0,842.04 -595.44,0 0,-842.04 z"
         id="path6541" /></clipPath><clipPath
       id="clipPath6551"><path
         d="m 0.00125,-0.12134 595.44,0 0,842.04 -595.44,0 0,-842.04 z"
         id="path6553" /></clipPath><clipPath
       id="clipPath6573"><path
         d="m 0,420.36 595.32,0 0,306.72 -595.32,0 0,-306.72 z"
         id="path6575" /></clipPath><clipPath
       id="clipPath6585"><path
         d="m 0,0 293.4,0 0,307.07 L 0,307.07 0,0 z"
         id="path6587" /></clipPath></defs><g
     transform="matrix(1.25,0,0,-1.25,-10.15,1012.4)"
     id="g6459"><g
       id="g6463"><g
         clip-path="url(#clipPath6467)"
         id="g6465"><path
           d="m 48.12,769.44 0.48,0 0,0.48 -0.48,0 0,-0.48 z"
           id="path6471"
           style="fill:#000000;fill-opacity:1;fill-rule:evenodd;stroke:none" /><path
           d="m 48.12,769.44 0.48,0 0,0.48 -0.48,0 0,-0.48 z"
           id="path6473"
           style="fill:#000000;fill-opacity:1;fill-rule:evenodd;stroke:none" /><path
           d="m 48.6,769.44 498.22,0 0,0.48 -498.22,0 0,-0.48 z"
           id="path6475"
           style="fill:#000000;fill-opacity:1;fill-rule:evenodd;stroke:none" /><path
           d="m 546.82,769.44 0.48004,0 0,0.48 -0.48004,0 0,-0.48 z"
           id="path6477"
           style="fill:#000000;fill-opacity:1;fill-rule:evenodd;stroke:none" /><path
           d="m 546.82,769.44 0.48004,0 0,0.48 -0.48004,0 0,-0.48 z"
           id="path6479"
           style="fill:#000000;fill-opacity:1;fill-rule:evenodd;stroke:none" /><path
           d="m 48.12,754.68 0.48,0 0,14.76 -0.48,0 0,-14.76 z"
           id="path6481"
           style="fill:#000000;fill-opacity:1;fill-rule:evenodd;stroke:none" /><path
           d="m 546.82,754.68 0.48004,0 0,14.76 -0.48004,0 0,-14.76 z"
           id="path6483"
           style="fill:#000000;fill-opacity:1;fill-rule:evenodd;stroke:none" /></g></g><text
       x="54"
       y="-743.62"
       transform="scale(1,-1)"
       id="text6485"><tspan
         x="54 57.335999 65.388 68.723999 77.388 80.723999 84.096001 87.335999 91.403999 94.740005 102.792 110.124 117.456 120.792 128.12399 138.672 145.38 152.71201 156.66 159.996 163.368 170.7 174.64801 181.356 186.024 190.02 196.692 201.36 208.104 215.436 222.024 228.73199 232.2 240.48 247.908 251.90401 259.18799 266.52002 271.18799 274.52399 281.25598 287.96399 291.96002 295.29602 302.62799 309.96002 316.63199"
         y="-743.62"
         id="tspan6487"
         style="font-size:12px;font-variant:normal;font-weight:bold;writing-mode:lr-tb;fill:#000000;fill-opacity:1;fill-rule:nonzero;stroke:none;font-family:Arial;-inkscape-font-specification:Arial Bold">IP Bill: Equipment Interference Authorisations </tspan></text>
<text
       x="320.20999"
       y="-743.62"
       transform="scale(1,-1)"
       id="text6489"><tspan
         x="320.20999"
         y="-743.62"
         id="tspan6491"
         style="font-size:12px;font-variant:normal;font-weight:bold;writing-mode:lr-tb;fill:#000000;fill-opacity:1;fill-rule:nonzero;stroke:none;font-family:Arial;-inkscape-font-specification:Arial Bold">–</tspan></text>
<text
       x="330.31"
       y="-743.62"
       transform="scale(1,-1)"
       id="text6493"><tspan
         x="330.31 337.642 344.10999 353.578 356.914 364.966 372.298 376.246 383.578 388.246 394.95401 401.66199 412.22202 418.92999 426.26199 430.20999"
         y="-743.62"
         id="tspan6495"
         style="font-size:12px;font-variant:normal;font-weight:bold;writing-mode:lr-tb;fill:#000000;fill-opacity:1;fill-rule:nonzero;stroke:none;font-family:Arial;-inkscape-font-specification:Arial Bold">Law Enforcement </tspan></text>
<path
       d="m 54,741.1 376.27,0 0,1.2 -376.27,0 0,-1.2 z"
       id="path6497"
       style="fill:#000000;fill-opacity:1;fill-rule:evenodd;stroke:none" /><g
       id="g6499"><g
         clip-path="url(#clipPath6503)"
         id="g6501"><path
           d="m 48.12,740.86 0.48,0 0,13.824 -0.48,0 0,-13.824 z"
           id="path6507"
           style="fill:#000000;fill-opacity:1;fill-rule:evenodd;stroke:none" /><path
           d="m 546.82,740.86 0.48004,0 0,13.824 -0.48004,0 0,-13.824 z"
           id="path6509"
           style="fill:#000000;fill-opacity:1;fill-rule:evenodd;stroke:none" /></g></g><g
       id="g6511"><g
         clip-path="url(#clipPath6515)"
         id="g6513"><path
           d="m 48.12,727.06 0.48,0 0,13.8 -0.48,0 0,-13.8 z"
           id="path6519"
           style="fill:#000000;fill-opacity:1;fill-rule:evenodd;stroke:none" /><path
           d="m 546.82,727.06 0.48004,0 0,13.8 -0.48004,0 0,-13.8 z"
           id="path6521"
           style="fill:#000000;fill-opacity:1;fill-rule:evenodd;stroke:none" /></g></g><g
       id="g6523"><g
         clip-path="url(#clipPath6527)"
         id="g6525"><path
           d="m 48.12,420.31 0.48,0 0,306.74 -0.48,0 0,-306.74 z"
           id="path6531"
           style="fill:#000000;fill-opacity:1;fill-rule:evenodd;stroke:none" /><path
           d="m 546.82,420.31 0.48004,0 0,306.74 -0.48004,0 0,-306.74 z"
           id="path6533"
           style="fill:#000000;fill-opacity:1;fill-rule:evenodd;stroke:none" /></g></g><g
       id="g6535"><g
         clip-path="url(#clipPath6539)"
         id="g6537"><path
           d="m 48.12,406.51 0.48,0 0,13.8 -0.48,0 0,-13.8 z"
           id="path6543"
           style="fill:#000000;fill-opacity:1;fill-rule:evenodd;stroke:none" /><path
           d="m 546.82,406.51 0.48004,0 0,13.8 -0.48004,0 0,-13.8 z"
           id="path6545"
           style="fill:#000000;fill-opacity:1;fill-rule:evenodd;stroke:none" /></g></g><g
       id="g6547"><g
         clip-path="url(#clipPath6551)"
         id="g6549"><path
           d="m 48.12,391.15 0.48,0 0,0.48001 -0.48,0 0,-0.48001 z"
           id="path6555"
           style="fill:#000000;fill-opacity:1;fill-rule:evenodd;stroke:none" /><path
           d="m 48.12,391.15 0.48,0 0,0.48001 -0.48,0 0,-0.48001 z"
           id="path6557"
           style="fill:#000000;fill-opacity:1;fill-rule:evenodd;stroke:none" /><path
           d="m 48.6,391.15 498.22,0 0,0.48001 -498.22,0 0,-0.48001 z"
           id="path6559"
           style="fill:#000000;fill-opacity:1;fill-rule:evenodd;stroke:none" /><path
           d="m 546.82,391.15 0.48004,0 0,0.48001 -0.48004,0 0,-0.48001 z"
           id="path6561"
           style="fill:#000000;fill-opacity:1;fill-rule:evenodd;stroke:none" /><path
           d="m 546.82,391.15 0.48004,0 0,0.48001 -0.48004,0 0,-0.48001 z"
           id="path6563"
           style="fill:#000000;fill-opacity:1;fill-rule:evenodd;stroke:none" /><path
           d="m 48.12,391.63 0.48,0 0,14.88 -0.48,0 0,-14.88 z"
           id="path6565"
           style="fill:#000000;fill-opacity:1;fill-rule:evenodd;stroke:none" /><path
           d="m 546.82,391.63 0.48004,0 0,14.88 -0.48004,0 0,-14.88 z"
           id="path6567"
           style="fill:#000000;fill-opacity:1;fill-rule:evenodd;stroke:none" /></g></g><g
       id="g6569"><g
         clip-path="url(#clipPath6573)"
         id="g6571"><g
           id="g6577"><g
             transform="matrix(4.0778,0,0,4.2597,150.65,420.32)"
             id="g6579"><g
               transform="scale(0.245407,0.234467)"
               id="g6581"><g
                 clip-path="url(#clipPath6585)"
                 id="g6583"><path
                   d="m 0.48,261.11 115.32,0 0,45.48 -115.32,0 0,-45.48 z"
                   id="path6589"
                   style="fill:#f2f2f2;fill-opacity:1;fill-rule:evenodd;stroke:none" /><path
                   d="m 0.48,261.11 115.32,0 0,45.48 -115.32,0 0,-45.48 z"
                   id="path6591"
                   style="fill:none;stroke:#000000;stroke-width:0.95999998;stroke-linecap:butt;stroke-linejoin:miter;stroke-miterlimit:10;stroke-opacity:1;stroke-dasharray:none" /><text
                   transform="matrix(1,0,0,-1,22.68,286.5)"
                   id="text6593"><tspan
                     x="0 2.5159681 6.359808 8.6161919 11.990784 17.262337 22.184448 24.440832 31.539455 36.321793 39.80621 43.290623 48.07296 53.374462 56.719105 59.00544 62.000641 67.262207 70.746628"
                     y="0"
                     id="tspan6595"
                     style="font-size:9.98400021px;font-variant:normal;font-weight:normal;writing-mode:lr-tb;fill:#000000;fill-opacity:1;fill-rule:nonzero;stroke:none;font-family:Calibri;-inkscape-font-specification:Calibri">Is the warrant for </tspan></text>
<text
                   transform="matrix(1,0,0,-1,28.8,274.48)"
                   id="text6597"><tspan
                     x="0 3.8445599 8.7648001 12.24084 14.53164 19.78056 25.079281 28.92384 31.174801 35.387878 38.863918 41.15472 49.112759 54.00312"
                     y="0"
                     id="tspan6599"
                     style="font-size:9.96000004px;font-variant:normal;font-weight:normal;writing-mode:lr-tb;fill:#000000;fill-opacity:1;fill-rule:nonzero;stroke:none;font-family:Calibri;-inkscape-font-specification:Calibri">serious crime?</tspan></text>
<path
                   d="m 0.48,174.23 115.32,0 0,45.48 -115.32,0 0,-45.48 z"
                   id="path6601"
                   style="fill:#f2f2f2;fill-opacity:1;fill-rule:evenodd;stroke:none" /><path
                   d="m 0.48,174.23 115.32,0 0,45.48 -115.32,0 0,-45.48 z"
                   id="path6603"
                   style="fill:none;stroke:#000000;stroke-width:0.95999998;stroke-linecap:butt;stroke-linejoin:miter;stroke-miterlimit:10;stroke-opacity:1;stroke-dasharray:none" /><text
                   transform="matrix(1,0,0,-1,14.16,211.55)"
                   id="text6605"><tspan
                     x="0 2.5099199 6.36444 8.6154003 11.99184 17.260679 22.18092 24.431881 29.740561 35.009399 37.300201 42.21048 45.208439 47.598839 52.90752 58.156441 63.425282 67.269836 70.606438 75.417122 80.685959 82.976761 87.887039"
                     y="0"
                     id="tspan6607"
                     style="font-size:9.96000004px;font-variant:normal;font-weight:normal;writing-mode:lr-tb;fill:#000000;fill-opacity:1;fill-rule:nonzero;stroke:none;font-family:Calibri;-inkscape-font-specification:Calibri">Is the Chief Constable </tspan></text>
<text
                   transform="matrix(1,0,0,-1,11.88,199.55)"
                   id="text6609"><tspan
                     x="0 3.8445599 8.6154003 11.99184 14.28264 18.107281 21.10524 23.39604 28.30632 33.575161 35.826118 39.20256 44.471401 49.39164 51.642601 58.764 63.53484 67.01088 70.486923 75.2976 80.566437 83.903038 86.19384 88.484642 92.30928"
                     y="0"
                     id="tspan6611"
                     style="font-size:9.96000004px;font-variant:normal;font-weight:normal;writing-mode:lr-tb;fill:#000000;fill-opacity:1;fill-rule:nonzero;stroke:none;font-family:Calibri;-inkscape-font-specification:Calibri">satisfied the warrant is </tspan></text>
<text
                   transform="matrix(1,0,0,-1,29.28,187.55)"
                   id="text6613"><tspan
                     x="0 5.2715521 10.193664 14.416896 19.309055 23.152897 26.996737 31.779072 35.263489 39.826176 42.212353 46.994686 52.286209 57.557758"
                     y="0"
                     id="tspan6615"
                     style="font-size:9.98400021px;font-variant:normal;font-weight:normal;writing-mode:lr-tb;fill:#000000;fill-opacity:1;fill-rule:nonzero;stroke:none;font-family:Calibri;-inkscape-font-specification:Calibri">necessary and </tspan></text>
<text
                   transform="matrix(1,0,0,-1,27.12,175.53)"
                   id="text6617"><tspan
                     x="0 5.2688398 8.7448797 14.02368 19.292521 24.561359 28.037399 31.374001 33.664799 38.95356 44.222401 48.99324 52.369678 57.289921"
                     y="0"
                     id="tspan6619"
                     style="font-size:9.96000004px;font-variant:normal;font-weight:normal;writing-mode:lr-tb;fill:#000000;fill-opacity:1;fill-rule:nonzero;stroke:none;font-family:Calibri;-inkscape-font-specification:Calibri">proportionate?</tspan></text>
<path
                   d="m 0.48,87.35 115.32,0 0,45.36 -115.32,0 0,-45.36 z"
                   id="path6621"
                   style="fill:#f2f2f2;fill-opacity:1;fill-rule:evenodd;stroke:none" /><path
                   d="m 0.48,87.35 115.32,0 0,45.36 -115.32,0 0,-45.36 z"
                   id="path6623"
                   style="fill:none;stroke:#000000;stroke-width:0.95999998;stroke-linecap:butt;stroke-linejoin:miter;stroke-miterlimit:10;stroke-opacity:1;stroke-dasharray:none" /><text
                   transform="matrix(1,0,0,-1,26.88,118.6)"
                   id="text6625"><tspan
                     x="0 6.2349601 11.0058 14.90016 17.151119 20.48772 25.78644 30.70668 32.957642 36.13488 41.36388 46.652641 48.943439 53.156521 55.417439 60.188278 62.47908"
                     y="0"
                     id="tspan6627"
                     style="font-size:9.96000004px;font-variant:normal;font-weight:normal;writing-mode:lr-tb;fill:#000000;fill-opacity:1;fill-rule:nonzero;stroke:none;font-family:Calibri;-inkscape-font-specification:Calibri">Has the Judicial </tspan></text>
<text
                   transform="matrix(1,0,0,-1,8.64,106.6)"
                   id="text6629"><tspan
                     x="0"
                     y="0"
                     id="tspan6631"
                     style="font-size:9.96000004px;font-variant:normal;font-weight:normal;writing-mode:lr-tb;fill:#000000;fill-opacity:1;fill-rule:nonzero;stroke:none;font-family:Calibri;-inkscape-font-specification:Calibri">C</tspan></text>
<text
                   transform="matrix(1,0,0,-1,13.92,106.6)"
                   id="text6633"><tspan
                     x="0 5.2688398 13.18704 21.10524 23.39604 27.22068 31.065241 33.356041 38.604961 43.893719 48.813961 52.290001 54.799919 59.570759 64.869476 70.138321 73.614357 78.893158 83.33532 88.255562 93.524399"
                     y="0"
                     id="tspan6635"
                     style="font-size:9.96000004px;font-variant:normal;font-weight:normal;writing-mode:lr-tb;fill:#000000;fill-opacity:1;fill-rule:nonzero;stroke:none;font-family:Calibri;-inkscape-font-specification:Calibri">ommissioner approved </tspan></text>
<text
                   transform="matrix(1,0,0,-1,31.8,94.598)"
                   id="text6637"><tspan
                     x="0 3.3366001 8.6253595 13.5456 15.79656 22.917959 27.688801 31.164841 34.640881 39.451561 44.720402 48.056999"
                     y="0"
                     id="tspan6639"
                     style="font-size:9.96000004px;font-variant:normal;font-weight:normal;writing-mode:lr-tb;fill:#000000;fill-opacity:1;fill-rule:nonzero;stroke:none;font-family:Calibri;-inkscape-font-specification:Calibri">the warrant?</tspan></text>
<path
                   d="m 0.48,0.46964 115.32,0 0,45.36 -115.32,0 0,-45.36 z"
                   id="path6641"
                   style="fill:#f2f2f2;fill-opacity:1;fill-rule:evenodd;stroke:none" /><path
                   d="m 0.48,0.46964 115.32,0 0,45.36 -115.32,0 0,-45.36 z"
                   id="path6643"
                   style="fill:none;stroke:#000000;stroke-width:0.95999998;stroke-linecap:butt;stroke-linejoin:miter;stroke-miterlimit:10;stroke-opacity:1;stroke-dasharray:none" /><text
                   transform="matrix(1,0,0,-1,22.08,25.646)"
                   id="text6645"><tspan
                     x="0 5.9959202 11.38428 16.77264 20.35824 25.746599 31.13496 34.720558 37.120918 42.041161 45.49728 50.547001 52.588799 54.989159 60.018959 64.700157 69.620399 72.02076"
                     y="0"
                     id="tspan6647"
                     style="font-size:9.96000004px;font-variant:normal;font-weight:bold;writing-mode:lr-tb;fill:#838383;fill-opacity:1;fill-rule:nonzero;stroke:none;font-family:Calibri;-inkscape-font-specification:Calibri Bold">Appropriate legal </tspan></text>
<text
                   transform="matrix(1,0,0,-1,8.52,13.646)"
                   id="text6649"><tspan
                     x="0 4.9202399 10.3086 13.76472 19.182961 24.57132 28.156919 30.55728 34.531319 39.451561 42.907681 45.318001 50.70636 56.094719 58.256039 60.656399 64.63044 67.01088 69.41124 74.799599 77.190002 82.578362 84.978722 89.898956 94.092117"
                     y="0"
                     id="tspan6651"
                     style="font-size:9.96000004px;font-variant:normal;font-weight:bold;writing-mode:lr-tb;fill:#838383;fill-opacity:1;fill-rule:nonzero;stroke:none;font-family:Calibri;-inkscape-font-specification:Calibri Bold">authorisation is in place</tspan></text>
<path
                   d="m 177.48,261.11 115.44,0 0,45.48 -115.44,0 0,-45.48 z"
                   id="path6653"
                   style="fill:#f2f2f2;fill-opacity:1;fill-rule:evenodd;stroke:none" /><path
                   d="m 177.48,261.11 115.44,0 0,45.48 -115.44,0 0,-45.48 z"
                   id="path6655"
                   style="fill:none;stroke:#000000;stroke-width:0.95999998;stroke-linecap:butt;stroke-linejoin:miter;stroke-miterlimit:10;stroke-opacity:1;stroke-dasharray:none" /><text
                   transform="matrix(1,0,0,-1,193.97,286.5)"
                   id="text6657"><tspan
                     x="0 4.6824961 9.6245756 16.323839 21.605375 24.36096 26.876928 32.038654 37.410049 42.83136 45.087746 53.264641 58.655998 62.639614 66.104065 68.360451 73.761795 79.133186 82.627586"
                     y="0"
                     id="tspan6659"
                     style="font-size:9.98400021px;font-variant:normal;font-weight:bold;writing-mode:lr-tb;fill:#6b6b6b;fill-opacity:1;fill-rule:nonzero;stroke:none;font-family:Calibri;-inkscape-font-specification:Calibri Bold">STOP: You must not </tspan></text>
<text
                   transform="matrix(1,0,0,-1,209.45,274.48)"
                   id="text6661"><tspan
                     x="0 4.9202399 9.1134005 14.50176 19.89012 22.29048 25.87608 30.90588 32.947681 38.33604 43.256279 46.712399"
                     y="0"
                     id="tspan6663"
                     style="font-size:9.96000004px;font-variant:normal;font-weight:bold;writing-mode:lr-tb;fill:#6b6b6b;fill-opacity:1;fill-rule:nonzero;stroke:none;font-family:Calibri;-inkscape-font-specification:Calibri Bold">acquire data</tspan></text>
<path
                   d="m 115.8,284.15 56.75,0 0,-0.48 -56.75,0 0,0.48 z m 55.75,2.76 6,-3 -6,-3 0,6 z"
                   id="path6665"
                   style="fill:#000000;fill-opacity:1;fill-rule:nonzero;stroke:none" /><path
                   d="m 177.48,174.23 115.44,0 0,45.48 -115.44,0 0,-45.48 z"
                   id="path6667"
                   style="fill:#f2f2f2;fill-opacity:1;fill-rule:evenodd;stroke:none" /><path
                   d="m 177.48,174.23 115.44,0 0,45.48 -115.44,0 0,-45.48 z"
                   id="path6669"
                   style="fill:none;stroke:#000000;stroke-width:0.95999998;stroke-linecap:butt;stroke-linejoin:miter;stroke-miterlimit:10;stroke-opacity:1;stroke-dasharray:none" /><text
                   transform="matrix(1,0,0,-1,193.97,199.55)"
                   id="text6671"><tspan
                     x="0 4.6812 9.6113997 16.34436 21.603239 24.3522 26.87208 32.051281 37.40976 42.818039 45.069 53.246159 58.634521 62.608559 66.064682 68.34552 73.733879 79.122238 82.578362"
                     y="0"
                     id="tspan6673"
                     style="font-size:9.96000004px;font-variant:normal;font-weight:bold;writing-mode:lr-tb;fill:#6b6b6b;fill-opacity:1;fill-rule:nonzero;stroke:none;font-family:Calibri;-inkscape-font-specification:Calibri Bold">STOP: You must not </tspan></text>
<text
                   transform="matrix(1,0,0,-1,209.45,187.55)"
                   id="text6675"><tspan
                     x="0 4.932096 9.1054077 14.506752 19.898111 22.294271 25.888512 30.910463 32.967167 38.358528 43.290623 46.755074"
                     y="0"
                     id="tspan6677"
                     style="font-size:9.98400021px;font-variant:normal;font-weight:bold;writing-mode:lr-tb;fill:#6b6b6b;fill-opacity:1;fill-rule:nonzero;stroke:none;font-family:Calibri;-inkscape-font-specification:Calibri Bold">acquire data</tspan></text>
<path
                   d="m 177.48,87.35 115.44,0 0,45.36 -115.44,0 0,-45.36 z"
                   id="path6679"
                   style="fill:#f2f2f2;fill-opacity:1;fill-rule:evenodd;stroke:none" /><path
                   d="m 177.48,87.35 115.44,0 0,45.36 -115.44,0 0,-45.36 z"
                   id="path6681"
                   style="fill:none;stroke:#000000;stroke-width:0.95999998;stroke-linecap:butt;stroke-linejoin:miter;stroke-miterlimit:10;stroke-opacity:1;stroke-dasharray:none" /><text
                   transform="matrix(1,0,0,-1,193.97,112.6)"
                   id="text6683"><tspan
                     x="0 4.6812 9.6113997 16.34436 21.603239 24.3522 26.87208 32.051281 37.40976 42.818039 45.069 53.246159 58.634521 62.608559 66.064682 68.34552 73.733879 79.122238 82.578362"
                     y="0"
                     id="tspan6685"
                     style="font-size:9.96000004px;font-variant:normal;font-weight:bold;writing-mode:lr-tb;fill:#6b6b6b;fill-opacity:1;fill-rule:nonzero;stroke:none;font-family:Calibri;-inkscape-font-specification:Calibri Bold">STOP: You must not </tspan></text>
<text
                   transform="matrix(1,0,0,-1,209.45,100.6)"
                   id="text6687"><tspan
                     x="0 4.9202399 9.1134005 14.50176 19.89012 22.29048 25.87608 30.90588 32.947681 38.33604 43.256279 46.712399"
                     y="0"
                     id="tspan6689"
                     style="font-size:9.96000004px;font-variant:normal;font-weight:bold;writing-mode:lr-tb;fill:#6b6b6b;fill-opacity:1;fill-rule:nonzero;stroke:none;font-family:Calibri;-inkscape-font-specification:Calibri Bold">acquire data</tspan></text>
<path
                   d="m 115.8,196.67 56.75,0 0,0.48 -56.75,0 0,-0.48 z m 55.75,-2.76 6,3 -6,3 0,-6 z"
                   id="path6691"
                   style="fill:#000000;fill-opacity:1;fill-rule:nonzero;stroke:none" /><path
                   d="m 115.8,109.79 56.75,0 0,0.48 -56.75,0 0,-0.48 z m 55.75,-2.76 6,3 -6,3 0,-6 z"
                   id="path6693"
                   style="fill:#000000;fill-opacity:1;fill-rule:nonzero;stroke:none" /><path
                   d="m 58.32,261.11 0,-36.47 -0.48,0 0,36.47 0.48,0 z m 2.76,-35.47 -3,-6 -3,6 6,0 z"
                   id="path6695"
                   style="fill:#000000;fill-opacity:1;fill-rule:nonzero;stroke:none" /><path
                   d="m 58.32,174.23 0,-36.47 -0.48,0 0,36.47 0.48,0 z m 2.76,-35.47 -3,-6 -3,6 6,0 z"
                   id="path6697"
                   style="fill:#000000;fill-opacity:1;fill-rule:nonzero;stroke:none" /><path
                   d="m 58.32,87.35 0,-36.472 -0.48,0 0,36.472 0.48,0 z m 2.76,-35.472 -3,-6 -3,6 6,0 z"
                   id="path6699"
                   style="fill:#000000;fill-opacity:1;fill-rule:nonzero;stroke:none" /><path
                   d="m 132.12,274.79 29.04,0 0,18.12 -29.04,0 0,-18.12 z"
                   id="path6701"
                   style="fill:#ffffff;fill-opacity:1;fill-rule:evenodd;stroke:none" /><text
                   transform="matrix(1,0,0,-1,140.86,280.93)"
                   id="text6703"><tspan
                     x="0 5.7600002"
                     y="0"
                     id="tspan6705"
                     style="font-size:9px;font-variant:normal;font-weight:normal;writing-mode:lr-tb;fill:#000000;fill-opacity:1;fill-rule:nonzero;stroke:none;font-family:Calibri;-inkscape-font-specification:Calibri">NO</tspan></text>
<path
                   d="m 132.12,188.15 29.04,0 0,18.12 -29.04,0 0,-18.12 z"
                   id="path6707"
                   style="fill:#ffffff;fill-opacity:1;fill-rule:evenodd;stroke:none" /><text
                   transform="matrix(1,0,0,-1,140.86,194.27)"
                   id="text6709"><tspan
                     x="0 5.7600002"
                     y="0"
                     id="tspan6711"
                     style="font-size:9px;font-variant:normal;font-weight:normal;writing-mode:lr-tb;fill:#000000;fill-opacity:1;fill-rule:nonzero;stroke:none;font-family:Calibri;-inkscape-font-specification:Calibri">NO</tspan></text>
<path
                   d="m 132.12,101.27 29.04,0 0,18.12 -29.04,0 0,-18.12 z"
                   id="path6713"
                   style="fill:#ffffff;fill-opacity:1;fill-rule:evenodd;stroke:none" /><text
                   transform="matrix(1,0,0,-1,140.86,107.34)"
                   id="text6715"><tspan
                     x="0 5.760004"
                     y="0"
                     id="tspan6717"
                     style="font-size:9.02400017px;font-variant:normal;font-weight:normal;writing-mode:lr-tb;fill:#000000;fill-opacity:1;fill-rule:nonzero;stroke:none;font-family:Calibri;-inkscape-font-specification:Calibri">NO</tspan></text>
<path
                   d="m 43.56,233.27 29.04,0 0,18.24 -29.04,0 0,-18.24 z"
                   id="path6719"
                   style="fill:#ffffff;fill-opacity:1;fill-rule:evenodd;stroke:none" /><text
                   transform="matrix(1,0,0,-1,51.672,239.44)"
                   id="text6721"><tspan
                     x="0 4.4400001 8.8889999"
                     y="0"
                     id="tspan6723"
                     style="font-size:9px;font-variant:normal;font-weight:normal;writing-mode:lr-tb;fill:#000000;fill-opacity:1;fill-rule:nonzero;stroke:none;font-family:Calibri;-inkscape-font-specification:Calibri">YES</tspan></text>
<path
                   d="m 43.56,146.39 29.04,0 0,18.12 -29.04,0 0,-18.12 z"
                   id="path6725"
                   style="fill:#ffffff;fill-opacity:1;fill-rule:evenodd;stroke:none" /><text
                   transform="matrix(1,0,0,-1,51.672,152.51)"
                   id="text6727"><tspan
                     x="0 4.4399881 8.8889999"
                     y="0"
                     id="tspan6729"
                     style="font-size:9.02400017px;font-variant:normal;font-weight:normal;writing-mode:lr-tb;fill:#000000;fill-opacity:1;fill-rule:nonzero;stroke:none;font-family:Calibri;-inkscape-font-specification:Calibri">YES</tspan></text>
<path
                   d="m 43.56,59.39 29.04,0 0,18.12 -29.04,0 0,-18.12 z"
                   id="path6731"
                   style="fill:#ffffff;fill-opacity:1;fill-rule:evenodd;stroke:none" /><text
                   transform="matrix(1,0,0,-1,51.672,65.438)"
                   id="text6733"><tspan
                     x="0 4.4400001 8.8889999"
                     y="0"
                     id="tspan6735"
                     style="font-size:9px;font-variant:normal;font-weight:normal;writing-mode:lr-tb;fill:#000000;fill-opacity:1;fill-rule:nonzero;stroke:none;font-family:Calibri;-inkscape-font-specification:Calibri">YES</tspan></text>
<path
                   d="m 43.56,231.35 29.04,0 0,18.12 -29.04,0 0,-18.12 z"
                   id="path6737"
                   style="fill:#ffffff;fill-opacity:1;fill-rule:evenodd;stroke:none" /><text
                   transform="matrix(1,0,0,-1,51.672,237.47)"
                   id="text6739"><tspan
                     x="0 4.4400001 8.8889999"
                     y="0"
                     id="tspan6741"
                     style="font-size:9px;font-variant:normal;font-weight:normal;writing-mode:lr-tb;fill:#000000;fill-opacity:1;fill-rule:nonzero;stroke:none;font-family:Calibri;-inkscape-font-specification:Calibri">YES</tspan></text>
</g></g></g></g></g></g></g></svg>
