<?xml version="1.0" encoding="UTF-8" standalone="no"?>
<!-- Created with Inkscape (http://www.inkscape.org/) -->

<svg
   xmlns:dc="http://purl.org/dc/elements/1.1/"
   xmlns:cc="http://creativecommons.org/ns#"
   xmlns:rdf="http://www.w3.org/1999/02/22-rdf-syntax-ns#"
   xmlns:svg="http://www.w3.org/2000/svg"
   xmlns="http://www.w3.org/2000/svg"
   version="1.1"
   width="723.98279"
   height="586.81946"
   id="svg4052"
   xml:space="preserve"><metadata
     id="metadata4058"><rdf:RDF><cc:Work
         rdf:about=""><dc:format>image/svg+xml</dc:format><dc:type
           rdf:resource="http://purl.org/dc/dcmitype/StillImage" /><dc:title></dc:title></cc:Work></rdf:RDF></metadata><defs
     id="defs4056"><clipPath
       id="clipPath4072"><path
         d="m 0,0 293.4,0 0,307.07 L 0,307.07 0,0 z"
         id="path4074" /></clipPath><clipPath
       id="clipPath4236"><path
         d="m 0.00125,-0.12134 595.44,0 0,842.04 -595.44,0 0,-842.04 z"
         id="path4238" /></clipPath><clipPath
       id="clipPath4272"><path
         d="m 0.00125,-0.12134 595.44,0 0,842.04 -595.44,0 0,-842.04 z"
         id="path4274" /></clipPath><clipPath
       id="clipPath4284"><path
         d="m 0.00125,-0.12134 595.44,0 0,842.04 -595.44,0 0,-842.04 z"
         id="path4286" /></clipPath><clipPath
       id="clipPath4304"><path
         d="m 0.00125,-0.12134 595.44,0 0,842.04 -595.44,0 0,-842.04 z"
         id="path4306" /></clipPath><clipPath
       id="clipPath4344"><path
         d="m 0.00125,-0.12134 595.44,0 0,842.04 -595.44,0 0,-842.04 z"
         id="path4346" /></clipPath><clipPath
       id="clipPath4356"><path
         d="m 0.00125,-0.12134 595.44,0 0,842.04 -595.44,0 0,-842.04 z"
         id="path4358" /></clipPath><clipPath
       id="clipPath4372"><path
         d="m 0.00125,-0.12134 595.44,0 0,842.04 -595.44,0 0,-842.04 z"
         id="path4374" /></clipPath><clipPath
       id="clipPath4392"><path
         d="m 0.00125,-0.12134 595.44,0 0,842.04 -595.44,0 0,-842.04 z"
         id="path4394" /></clipPath><clipPath
       id="clipPath4408"><path
         d="m 0.00125,-0.12134 595.44,0 0,842.04 -595.44,0 0,-842.04 z"
         id="path4410" /></clipPath><clipPath
       id="clipPath4432"><path
         d="m 0.00125,-0.12134 595.44,0 0,842.04 -595.44,0 0,-842.04 z"
         id="path4434" /></clipPath><clipPath
       id="clipPath4452"><path
         d="m 0.00125,-0.12134 595.44,0 0,842.04 -595.44,0 0,-842.04 z"
         id="path4454" /></clipPath><clipPath
       id="clipPath4468"><path
         d="m 0.00125,-0.12134 595.44,0 0,842.04 -595.44,0 0,-842.04 z"
         id="path4470" /></clipPath><clipPath
       id="clipPath4484"><path
         d="m 0.00125,-0.12134 595.44,0 0,842.04 -595.44,0 0,-842.04 z"
         id="path4486" /></clipPath><clipPath
       id="clipPath4496"><path
         d="m 0.00125,-0.12134 595.44,0 0,842.04 -595.44,0 0,-842.04 z"
         id="path4498" /></clipPath><clipPath
       id="clipPath4518"><path
         d="m 0.00125,-0.12134 595.44,0 0,842.04 -595.44,0 0,-842.04 z"
         id="path4520" /></clipPath><clipPath
       id="clipPath4566"><path
         d="m 0.00125,-0.12134 595.44,0 0,842.04 -595.44,0 0,-842.04 z"
         id="path4568" /></clipPath><clipPath
       id="clipPath4578"><path
         d="m 0.00125,-0.12134 595.44,0 0,842.04 -595.44,0 0,-842.04 z"
         id="path4580" /></clipPath><clipPath
       id="clipPath4590"><path
         d="m 0.00125,-0.12134 595.44,0 0,842.04 -595.44,0 0,-842.04 z"
         id="path4592" /></clipPath><clipPath
       id="clipPath4602"><path
         d="m 0.00125,-0.12134 595.44,0 0,842.04 -595.44,0 0,-842.04 z"
         id="path4604" /></clipPath><clipPath
       id="clipPath4614"><path
         d="m 0.00125,-0.12134 595.44,0 0,842.04 -595.44,0 0,-842.04 z"
         id="path4616" /></clipPath><clipPath
       id="clipPath4626"><path
         d="m 0.00125,-0.12134 595.44,0 0,842.04 -595.44,0 0,-842.04 z"
         id="path4628" /></clipPath><clipPath
       id="clipPath4638"><path
         d="m 0.00125,-0.12134 595.44,0 0,842.04 -595.44,0 0,-842.04 z"
         id="path4640" /></clipPath><clipPath
       id="clipPath4650"><path
         d="m 0.00125,-0.12134 595.44,0 0,842.04 -595.44,0 0,-842.04 z"
         id="path4652" /></clipPath><clipPath
       id="clipPath4662"><path
         d="m 0.00125,-0.12134 595.44,0 0,842.04 -595.44,0 0,-842.04 z"
         id="path4664" /></clipPath><clipPath
       id="clipPath4674"><path
         d="m 0.00125,-0.12134 595.44,0 0,842.04 -595.44,0 0,-842.04 z"
         id="path4676" /></clipPath><clipPath
       id="clipPath4686"><path
         d="m 0.00125,-0.12134 595.44,0 0,842.04 -595.44,0 0,-842.04 z"
         id="path4688" /></clipPath><clipPath
       id="clipPath4698"><path
         d="m 0.00125,-0.12134 595.44,0 0,842.04 -595.44,0 0,-842.04 z"
         id="path4700" /></clipPath><clipPath
       id="clipPath4710"><path
         d="m 0.00125,-0.12134 595.44,0 0,842.04 -595.44,0 0,-842.04 z"
         id="path4712" /></clipPath><clipPath
       id="clipPath4722"><path
         d="m 0.00125,-0.12134 595.44,0 0,842.04 -595.44,0 0,-842.04 z"
         id="path4724" /></clipPath><clipPath
       id="clipPath4734"><path
         d="m 0.00125,-0.12134 595.44,0 0,842.04 -595.44,0 0,-842.04 z"
         id="path4736" /></clipPath><clipPath
       id="clipPath4746"><path
         d="m 0.00125,-0.12134 595.44,0 0,842.04 -595.44,0 0,-842.04 z"
         id="path4748" /></clipPath><clipPath
       id="clipPath4758"><path
         d="m 0.00125,-0.12134 595.44,0 0,842.04 -595.44,0 0,-842.04 z"
         id="path4760" /></clipPath><clipPath
       id="clipPath4770"><path
         d="m 0.00125,-0.12134 595.44,0 0,842.04 -595.44,0 0,-842.04 z"
         id="path4772" /></clipPath><clipPath
       id="clipPath4782"><path
         d="m 0.00125,-0.12134 595.44,0 0,842.04 -595.44,0 0,-842.04 z"
         id="path4784" /></clipPath><clipPath
       id="clipPath4794"><path
         d="m 0.00125,-0.12134 595.44,0 0,842.04 -595.44,0 0,-842.04 z"
         id="path4796" /></clipPath><clipPath
       id="clipPath4806"><path
         d="m 0.00125,-0.12134 595.44,0 0,842.04 -595.44,0 0,-842.04 z"
         id="path4808" /></clipPath><clipPath
       id="clipPath4818"><path
         d="m 0.00125,-0.12134 595.44,0 0,842.04 -595.44,0 0,-842.04 z"
         id="path4820" /></clipPath><clipPath
       id="clipPath4830"><path
         d="m 0.00125,-0.12134 595.44,0 0,842.04 -595.44,0 0,-842.04 z"
         id="path4832" /></clipPath><clipPath
       id="clipPath4842"><path
         d="m 0.00125,-0.12134 595.44,0 0,842.04 -595.44,0 0,-842.04 z"
         id="path4844" /></clipPath><clipPath
       id="clipPath4854"><path
         d="m 0.00125,-0.12134 595.44,0 0,842.04 -595.44,0 0,-842.04 z"
         id="path4856" /></clipPath><clipPath
       id="clipPath4866"><path
         d="m 0.00125,-0.12134 595.44,0 0,842.04 -595.44,0 0,-842.04 z"
         id="path4868" /></clipPath><clipPath
       id="clipPath4878"><path
         d="m 0.00125,-0.12134 595.44,0 0,842.04 -595.44,0 0,-842.04 z"
         id="path4880" /></clipPath></defs><g
     transform="matrix(1.25,0,0,-1.25,-10.150768,732.59725)"
     id="g4060"><g
       transform="matrix(0.9998372,0,0,0.996813,150.65,183.24)"
       id="g4068"><g
         clip-path="url(#clipPath4072)"
         id="g4070"><path
           d="m 0.48,261.11 115.32,0 0,45.48 -115.32,0 0,-45.48 z"
           id="path4076"
           style="fill:#f2f2f2;fill-opacity:1;fill-rule:evenodd;stroke:none" /><path
           d="m 0.48,261.11 115.32,0 0,45.48 -115.32,0 0,-45.48 z"
           id="path4078"
           style="fill:none;stroke:#000000;stroke-width:0.95999998;stroke-linecap:butt;stroke-linejoin:miter;stroke-miterlimit:10;stroke-opacity:1;stroke-dasharray:none" /><text
           transform="matrix(1,0,0,-1,22.68,292.5)"
           id="text4080"><tspan
             x="0 2.5099199 6.36444 8.6154003 11.99184 17.260679 22.18092 24.431881 31.55328 36.32412 39.800159 43.276199 48.08688 53.355721 56.692322 58.98312 61.981079 67.249924 70.72596"
             y="0"
             id="tspan4082"
             style="font-size:9.96000004px;font-variant:normal;font-weight:normal;writing-mode:lr-tb;fill:#000000;fill-opacity:1;fill-rule:nonzero;stroke:none;font-family:Calibri;-inkscape-font-specification:Calibri">Is the warrant for </tspan></text>
<text
           transform="matrix(1,0,0,-1,23.16,280.48)"
           id="text4084"><tspan
             x="0 5.2688398 10.03968 13.41612 15.70692 20.955839 26.2446 31.01544 33.30624 35.367962 39.212521 44.132759 48.34584 53.604721 57.080761 59.371559 62.70816 67.269836 69.779762"
             y="0"
             id="tspan4086"
             style="font-size:9.96000004px;font-variant:normal;font-weight:normal;writing-mode:lr-tb;fill:#000000;fill-opacity:1;fill-rule:nonzero;stroke:none;font-family:Calibri;-inkscape-font-specification:Calibri">national security, </tspan></text>
<text
           transform="matrix(1,0,0,-1,12.48,268.48)"
           id="text4088"><tspan
             x="0 3.8445599 8.7648001 12.24084 14.53164 19.78056 25.079281 28.92384 31.174801 35.387878 38.863918 41.15472 49.112759 54.00312 56.513039 61.781879 65.257919 67.419243 72.329521 81.193916 86.61216"
             y="0"
             id="tspan4090"
             style="font-size:9.96000004px;font-variant:normal;font-weight:normal;writing-mode:lr-tb;fill:#000000;fill-opacity:1;fill-rule:nonzero;stroke:none;font-family:Calibri;-inkscape-font-specification:Calibri">serious crime or EWB?</tspan></text>
<path
           d="m 0.48,174.23 115.32,0 0,45.48 -115.32,0 0,-45.48 z"
           id="path4092"
           style="fill:#f2f2f2;fill-opacity:1;fill-rule:evenodd;stroke:none" /><path
           d="m 0.48,174.23 115.32,0 0,45.48 -115.32,0 0,-45.48 z"
           id="path4094"
           style="fill:none;stroke:#000000;stroke-width:0.95999998;stroke-linecap:butt;stroke-linejoin:miter;stroke-miterlimit:10;stroke-opacity:1;stroke-dasharray:none" /><text
           transform="matrix(1,0,0,-1,9.72,211.55)"
           id="text4096"><tspan
             x="0 2.5099199 6.36444 8.6154003 11.99184 17.260679 22.18092 24.431881 29.003519 33.9636 38.136841 41.612881 46.533119 49.86972 54.680401 58.156441 62.70816 65.218079 70.486923 73.484879 75.646202 80.217842 83.554443 88.355164 91.691757 96.65184"
             y="0"
             id="tspan4098"
             style="font-size:9.96000004px;font-variant:normal;font-weight:normal;writing-mode:lr-tb;fill:#000000;fill-opacity:1;fill-rule:nonzero;stroke:none;font-family:Calibri;-inkscape-font-specification:Calibri">Is the Secretary of State </tspan></text>
<text
           transform="matrix(1,0,0,-1,11.88,199.55)"
           id="text4100"><tspan
             x="0 3.8445599 8.6154003 11.99184 14.28264 18.107281 21.10524 23.39604 28.30632 33.575161 35.826118 39.20256 44.471401 49.39164 51.642601 58.764 63.53484 67.01088 70.486923 75.2976 80.566437 83.903038 86.19384 88.484642 92.30928"
             y="0"
             id="tspan4102"
             style="font-size:9.96000004px;font-variant:normal;font-weight:normal;writing-mode:lr-tb;fill:#000000;fill-opacity:1;fill-rule:nonzero;stroke:none;font-family:Calibri;-inkscape-font-specification:Calibri">satisfied the warrant is </tspan></text>
<text
           transform="matrix(1,0,0,-1,29.28,187.55)"
           id="text4104"><tspan
             x="0 5.2715521 10.193664 14.416896 19.309055 23.152897 26.996737 31.779072 35.263489 39.826176 42.212353 46.994686 52.286209 57.557758"
             y="0"
             id="tspan4106"
             style="font-size:9.98400021px;font-variant:normal;font-weight:normal;writing-mode:lr-tb;fill:#000000;fill-opacity:1;fill-rule:nonzero;stroke:none;font-family:Calibri;-inkscape-font-specification:Calibri">necessary and </tspan></text>
<text
           transform="matrix(1,0,0,-1,27.12,175.53)"
           id="text4108"><tspan
             x="0 5.2688398 8.7448797 14.02368 19.292521 24.561359 28.037399 31.374001 33.664799 38.95356 44.222401 48.99324 52.369678 57.289921"
             y="0"
             id="tspan4110"
             style="font-size:9.96000004px;font-variant:normal;font-weight:normal;writing-mode:lr-tb;fill:#000000;fill-opacity:1;fill-rule:nonzero;stroke:none;font-family:Calibri;-inkscape-font-specification:Calibri">proportionate?</tspan></text>
<path
           d="m 0.48,87.35 115.32,0 0,45.36 -115.32,0 0,-45.36 z"
           id="path4112"
           style="fill:#f2f2f2;fill-opacity:1;fill-rule:evenodd;stroke:none" /><path
           d="m 0.48,87.35 115.32,0 0,45.36 -115.32,0 0,-45.36 z"
           id="path4114"
           style="fill:none;stroke:#000000;stroke-width:0.95999998;stroke-linecap:butt;stroke-linejoin:miter;stroke-miterlimit:10;stroke-opacity:1;stroke-dasharray:none" /><text
           transform="matrix(1,0,0,-1,26.88,118.6)"
           id="text4116"><tspan
             x="0 6.2349601 11.0058 14.90016 17.151119 20.48772 25.78644 30.70668 32.957642 36.13488 41.36388 46.652641 48.943439 53.156521 55.417439 60.188278 62.47908"
             y="0"
             id="tspan4118"
             style="font-size:9.96000004px;font-variant:normal;font-weight:normal;writing-mode:lr-tb;fill:#000000;fill-opacity:1;fill-rule:nonzero;stroke:none;font-family:Calibri;-inkscape-font-specification:Calibri">Has the Judicial </tspan></text>
<text
           transform="matrix(1,0,0,-1,8.64,106.6)"
           id="text4120"><tspan
             x="0 5.3086801 10.5576 18.4758 26.393999 28.684799 32.509441 36.354 38.644798 43.893719 49.18248 54.102718 57.578758 60.08868 64.85952 70.158241 75.427078 78.903122 84.181923 88.624077 93.544319 98.813164"
             y="0"
             id="tspan4122"
             style="font-size:9.96000004px;font-variant:normal;font-weight:normal;writing-mode:lr-tb;fill:#000000;fill-opacity:1;fill-rule:nonzero;stroke:none;font-family:Calibri;-inkscape-font-specification:Calibri">Commissioner approved </tspan></text>
<text
           transform="matrix(1,0,0,-1,31.8,94.598)"
           id="text4124"><tspan
             x="0 3.3366001 8.6253595 13.5456 15.79656 22.917959 27.688801 31.164841 34.640881 39.451561 44.720402 48.056999"
             y="0"
             id="tspan4126"
             style="font-size:9.96000004px;font-variant:normal;font-weight:normal;writing-mode:lr-tb;fill:#000000;fill-opacity:1;fill-rule:nonzero;stroke:none;font-family:Calibri;-inkscape-font-specification:Calibri">the warrant?</tspan></text>
<path
           d="m 0.48,0.46964 115.32,0 0,45.36 -115.32,0 0,-45.36 z"
           id="path4128"
           style="fill:#f2f2f2;fill-opacity:1;fill-rule:evenodd;stroke:none" /><path
           d="m 0.48,0.46964 115.32,0 0,45.36 -115.32,0 0,-45.36 z"
           id="path4130"
           style="fill:none;stroke:#000000;stroke-width:0.95999998;stroke-linecap:butt;stroke-linejoin:miter;stroke-miterlimit:10;stroke-opacity:1;stroke-dasharray:none" /><text
           transform="matrix(1,0,0,-1,22.08,25.646)"
           id="text4132"><tspan
             x="0 5.9959202 11.38428 16.77264 20.35824 25.746599 31.13496 34.720558 37.120918 42.041161 45.49728 50.547001 52.588799 54.989159 60.018959 64.700157 69.620399 72.02076"
             y="0"
             id="tspan4134"
             style="font-size:9.96000004px;font-variant:normal;font-weight:bold;writing-mode:lr-tb;fill:#838383;fill-opacity:1;fill-rule:nonzero;stroke:none;font-family:Calibri;-inkscape-font-specification:Calibri Bold">Appropriate legal </tspan></text>
<text
           transform="matrix(1,0,0,-1,8.52,13.646)"
           id="text4136"><tspan
             x="0 4.9202399 10.3086 13.76472 19.182961 24.57132 28.156919 30.55728 34.531319 39.451561 42.907681 45.318001 50.70636 56.094719 58.256039 60.656399 64.63044 67.01088 69.41124 74.799599 77.190002 82.578362 84.978722 89.898956 94.092117"
             y="0"
             id="tspan4138"
             style="font-size:9.96000004px;font-variant:normal;font-weight:bold;writing-mode:lr-tb;fill:#838383;fill-opacity:1;fill-rule:nonzero;stroke:none;font-family:Calibri;-inkscape-font-specification:Calibri Bold">authorisation is in place</tspan></text>
<path
           d="m 177.48,261.11 115.44,0 0,45.48 -115.44,0 0,-45.48 z"
           id="path4140"
           style="fill:#f2f2f2;fill-opacity:1;fill-rule:evenodd;stroke:none" /><path
           d="m 177.48,261.11 115.44,0 0,45.48 -115.44,0 0,-45.48 z"
           id="path4142"
           style="fill:none;stroke:#000000;stroke-width:0.95999998;stroke-linecap:butt;stroke-linejoin:miter;stroke-miterlimit:10;stroke-opacity:1;stroke-dasharray:none" /><text
           transform="matrix(1,0,0,-1,193.97,286.5)"
           id="text4144"><tspan
             x="0 4.6824961 9.6245756 16.323839 21.605375 24.36096 26.876928 32.038654 37.410049 42.83136 45.087746 53.264641 58.655998 62.639614 66.104065 68.360451 73.761795 79.133186 82.627586"
             y="0"
             id="tspan4146"
             style="font-size:9.98400021px;font-variant:normal;font-weight:bold;writing-mode:lr-tb;fill:#6b6b6b;fill-opacity:1;fill-rule:nonzero;stroke:none;font-family:Calibri;-inkscape-font-specification:Calibri Bold">STOP: You must not </tspan></text>
<text
           transform="matrix(1,0,0,-1,209.45,274.48)"
           id="text4148"><tspan
             x="0 4.9202399 9.1134005 14.50176 19.89012 22.29048 25.87608 30.90588 32.947681 38.33604 43.256279 46.712399"
             y="0"
             id="tspan4150"
             style="font-size:9.96000004px;font-variant:normal;font-weight:bold;writing-mode:lr-tb;fill:#6b6b6b;fill-opacity:1;fill-rule:nonzero;stroke:none;font-family:Calibri;-inkscape-font-specification:Calibri Bold">acquire data</tspan></text>
<path
           d="m 115.8,284.15 56.75,0 0,-0.48 -56.75,0 0,0.48 z m 55.75,2.76 6,-3 -6,-3 0,6 z"
           id="path4152"
           style="fill:#000000;fill-opacity:1;fill-rule:nonzero;stroke:none" /><path
           d="m 177.48,174.23 115.44,0 0,45.48 -115.44,0 0,-45.48 z"
           id="path4154"
           style="fill:#f2f2f2;fill-opacity:1;fill-rule:evenodd;stroke:none" /><path
           d="m 177.48,174.23 115.44,0 0,45.48 -115.44,0 0,-45.48 z"
           id="path4156"
           style="fill:none;stroke:#000000;stroke-width:0.95999998;stroke-linecap:butt;stroke-linejoin:miter;stroke-miterlimit:10;stroke-opacity:1;stroke-dasharray:none" /><text
           transform="matrix(1,0,0,-1,193.97,199.55)"
           id="text4158"><tspan
             x="0 4.6812 9.6113997 16.34436 21.603239 24.3522 26.87208 32.051281 37.40976 42.818039 45.069 53.246159 58.634521 62.608559 66.064682 68.34552 73.733879 79.122238 82.578362"
             y="0"
             id="tspan4160"
             style="font-size:9.96000004px;font-variant:normal;font-weight:bold;writing-mode:lr-tb;fill:#6b6b6b;fill-opacity:1;fill-rule:nonzero;stroke:none;font-family:Calibri;-inkscape-font-specification:Calibri Bold">STOP: You must not </tspan></text>
<text
           transform="matrix(1,0,0,-1,209.45,187.55)"
           id="text4162"><tspan
             x="0 4.932096 9.1054077 14.506752 19.898111 22.294271 25.888512 30.910463 32.967167 38.358528 43.290623 46.755074"
             y="0"
             id="tspan4164"
             style="font-size:9.98400021px;font-variant:normal;font-weight:bold;writing-mode:lr-tb;fill:#6b6b6b;fill-opacity:1;fill-rule:nonzero;stroke:none;font-family:Calibri;-inkscape-font-specification:Calibri Bold">acquire data</tspan></text>
<path
           d="m 177.48,87.35 115.44,0 0,45.36 -115.44,0 0,-45.36 z"
           id="path4166"
           style="fill:#f2f2f2;fill-opacity:1;fill-rule:evenodd;stroke:none" /><path
           d="m 177.48,87.35 115.44,0 0,45.36 -115.44,0 0,-45.36 z"
           id="path4168"
           style="fill:none;stroke:#000000;stroke-width:0.95999998;stroke-linecap:butt;stroke-linejoin:miter;stroke-miterlimit:10;stroke-opacity:1;stroke-dasharray:none" /><text
           transform="matrix(1,0,0,-1,193.97,112.6)"
           id="text4170"><tspan
             x="0 4.6812 9.6113997 16.34436 21.603239 24.3522 26.87208 32.051281 37.40976 42.818039 45.069 53.246159 58.634521 62.608559 66.064682 68.34552 73.733879 79.122238 82.578362"
             y="0"
             id="tspan4172"
             style="font-size:9.96000004px;font-variant:normal;font-weight:bold;writing-mode:lr-tb;fill:#6b6b6b;fill-opacity:1;fill-rule:nonzero;stroke:none;font-family:Calibri;-inkscape-font-specification:Calibri Bold">STOP: You must not </tspan></text>
<text
           transform="matrix(1,0,0,-1,209.45,100.6)"
           id="text4174"><tspan
             x="0 4.9202399 9.1134005 14.50176 19.89012 22.29048 25.87608 30.90588 32.947681 38.33604 43.256279 46.712399"
             y="0"
             id="tspan4176"
             style="font-size:9.96000004px;font-variant:normal;font-weight:bold;writing-mode:lr-tb;fill:#6b6b6b;fill-opacity:1;fill-rule:nonzero;stroke:none;font-family:Calibri;-inkscape-font-specification:Calibri Bold">acquire data</tspan></text>
<path
           d="m 115.8,196.67 56.75,0 0,0.48 -56.75,0 0,-0.48 z m 55.75,-2.76 6,3 -6,3 0,-6 z"
           id="path4178"
           style="fill:#000000;fill-opacity:1;fill-rule:nonzero;stroke:none" /><path
           d="m 115.8,109.79 56.75,0 0,0.48 -56.75,0 0,-0.48 z m 55.75,-2.76 6,3 -6,3 0,-6 z"
           id="path4180"
           style="fill:#000000;fill-opacity:1;fill-rule:nonzero;stroke:none" /><path
           d="m 58.32,261.11 0,-36.47 -0.48,0 0,36.47 0.48,0 z m 2.76,-35.47 -3,-6 -3,6 6,0 z"
           id="path4182"
           style="fill:#000000;fill-opacity:1;fill-rule:nonzero;stroke:none" /><path
           d="m 58.32,174.23 0,-36.47 -0.48,0 0,36.47 0.48,0 z m 2.76,-35.47 -3,-6 -3,6 6,0 z"
           id="path4184"
           style="fill:#000000;fill-opacity:1;fill-rule:nonzero;stroke:none" /><path
           d="m 58.32,87.35 0,-36.472 -0.48,0 0,36.472 0.48,0 z m 2.76,-35.472 -3,-6 -3,6 6,0 z"
           id="path4186"
           style="fill:#000000;fill-opacity:1;fill-rule:nonzero;stroke:none" /><path
           d="m 132.12,274.79 29.04,0 0,18.12 -29.04,0 0,-18.12 z"
           id="path4188"
           style="fill:#ffffff;fill-opacity:1;fill-rule:evenodd;stroke:none" /><text
           transform="matrix(1,0,0,-1,140.86,280.93)"
           id="text4190"><tspan
             x="0 5.7600002"
             y="0"
             id="tspan4192"
             style="font-size:9px;font-variant:normal;font-weight:normal;writing-mode:lr-tb;fill:#000000;fill-opacity:1;fill-rule:nonzero;stroke:none;font-family:Calibri;-inkscape-font-specification:Calibri">NO</tspan></text>
<path
           d="m 132.12,188.15 29.04,0 0,18.12 -29.04,0 0,-18.12 z"
           id="path4194"
           style="fill:#ffffff;fill-opacity:1;fill-rule:evenodd;stroke:none" /><text
           transform="matrix(1,0,0,-1,140.86,194.27)"
           id="text4196"><tspan
             x="0 5.7600002"
             y="0"
             id="tspan4198"
             style="font-size:9px;font-variant:normal;font-weight:normal;writing-mode:lr-tb;fill:#000000;fill-opacity:1;fill-rule:nonzero;stroke:none;font-family:Calibri;-inkscape-font-specification:Calibri">NO</tspan></text>
<path
           d="m 132.12,101.27 29.04,0 0,18.12 -29.04,0 0,-18.12 z"
           id="path4200"
           style="fill:#ffffff;fill-opacity:1;fill-rule:evenodd;stroke:none" /><text
           transform="matrix(1,0,0,-1,140.86,107.34)"
           id="text4202"><tspan
             x="0 5.760004"
             y="0"
             id="tspan4204"
             style="font-size:9.02400017px;font-variant:normal;font-weight:normal;writing-mode:lr-tb;fill:#000000;fill-opacity:1;fill-rule:nonzero;stroke:none;font-family:Calibri;-inkscape-font-specification:Calibri">NO</tspan></text>
<path
           d="m 43.56,233.27 29.04,0 0,18.24 -29.04,0 0,-18.24 z"
           id="path4206"
           style="fill:#ffffff;fill-opacity:1;fill-rule:evenodd;stroke:none" /><text
           transform="matrix(1,0,0,-1,51.672,239.44)"
           id="text4208"><tspan
             x="0 4.4400001 8.8889999"
             y="0"
             id="tspan4210"
             style="font-size:9px;font-variant:normal;font-weight:normal;writing-mode:lr-tb;fill:#000000;fill-opacity:1;fill-rule:nonzero;stroke:none;font-family:Calibri;-inkscape-font-specification:Calibri">YES</tspan></text>
<path
           d="m 43.56,146.39 29.04,0 0,18.12 -29.04,0 0,-18.12 z"
           id="path4212"
           style="fill:#ffffff;fill-opacity:1;fill-rule:evenodd;stroke:none" /><text
           transform="matrix(1,0,0,-1,51.672,152.51)"
           id="text4214"><tspan
             x="0 4.4399881 8.8889999"
             y="0"
             id="tspan4216"
             style="font-size:9.02400017px;font-variant:normal;font-weight:normal;writing-mode:lr-tb;fill:#000000;fill-opacity:1;fill-rule:nonzero;stroke:none;font-family:Calibri;-inkscape-font-specification:Calibri">YES</tspan></text>
<path
           d="m 43.56,59.39 29.04,0 0,18.12 -29.04,0 0,-18.12 z"
           id="path4218"
           style="fill:#ffffff;fill-opacity:1;fill-rule:evenodd;stroke:none" /><text
           transform="matrix(1,0,0,-1,51.672,65.438)"
           id="text4220"><tspan
             x="0 4.4400001 8.8889999"
             y="0"
             id="tspan4222"
             style="font-size:9px;font-variant:normal;font-weight:normal;writing-mode:lr-tb;fill:#000000;fill-opacity:1;fill-rule:nonzero;stroke:none;font-family:Calibri;-inkscape-font-specification:Calibri">YES</tspan></text>
<path
           d="m 43.56,231.35 29.04,0 0,18.12 -29.04,0 0,-18.12 z"
           id="path4224"
           style="fill:#ffffff;fill-opacity:1;fill-rule:evenodd;stroke:none" /><text
           transform="matrix(1,0,0,-1,51.672,237.47)"
           id="text4226"><tspan
             x="0 4.4400001 8.8889999"
             y="0"
             id="tspan4228"
             style="font-size:9px;font-variant:normal;font-weight:normal;writing-mode:lr-tb;fill:#000000;fill-opacity:1;fill-rule:nonzero;stroke:none;font-family:Calibri;-inkscape-font-specification:Calibri">YES</tspan></text>
</g></g><g
       transform="matrix(1.0000124,0,0,1.0000143,1.7764e-5,-1.654e-5)"
       id="g4514"><g
         clip-path="url(#clipPath4518)"
         id="g4516"><path
           d="m 48.12,545.59 0.48,0 0,0.48001 -0.48,0 0,-0.48001 z"
           id="path4522"
           style="fill:#000000;fill-opacity:1;fill-rule:evenodd;stroke:none" /><path
           d="m 48.12,545.59 0.48,0 0,0.48001 -0.48,0 0,-0.48001 z"
           id="path4524"
           style="fill:#000000;fill-opacity:1;fill-rule:evenodd;stroke:none" /><path
           d="m 48.6,545.59 498.22,0 0,0.48001 -498.22,0 0,-0.48001 z"
           id="path4526"
           style="fill:#000000;fill-opacity:1;fill-rule:evenodd;stroke:none" /><path
           d="m 546.82,545.59 0.48004,0 0,0.48001 -0.48004,0 0,-0.48001 z"
           id="path4528"
           style="fill:#000000;fill-opacity:1;fill-rule:evenodd;stroke:none" /><path
           d="m 546.82,545.59 0.48004,0 0,0.48001 -0.48004,0 0,-0.48001 z"
           id="path4530"
           style="fill:#000000;fill-opacity:1;fill-rule:evenodd;stroke:none" /><path
           d="m 48.12,530.83 0.48,0 0,14.76 -0.48,0 0,-14.76 z"
           id="path4532"
           style="fill:#000000;fill-opacity:1;fill-rule:evenodd;stroke:none" /><path
           d="m 546.82,530.83 0.48004,0 0,14.76 -0.48004,0 0,-14.76 z"
           id="path4534"
           style="fill:#000000;fill-opacity:1;fill-rule:evenodd;stroke:none" /></g></g><text
       x="54.00074"
       y="-519.79694"
       transform="scale(0.99999905,-1.0000009)"
       id="text4536"
       style="font-size:12.00016022px"><tspan
         x="54.00074 57.336784 65.388893 68.724937 77.389053 80.725098 84.097137 87.337181 91.405235"
         y="-519.79694"
         id="tspan4538"
         style="font-size:12.00016022px;font-variant:normal;font-weight:bold;writing-mode:lr-tb;fill:#000000;fill-opacity:1;fill-rule:nonzero;stroke:none;font-family:Arial;-inkscape-font-specification:Arial Bold">IP Bill: </tspan></text>
<text
       x="94.825287"
       y="-519.79694"
       transform="scale(0.99999905,-1.0000009)"
       id="text4540"
       style="font-size:12.00016022px"><tspan
         x="94.825287"
         y="-519.79694"
         id="tspan4542"
         style="font-size:12.00016022px;font-variant:normal;font-weight:bold;writing-mode:lr-tb;fill:#000000;fill-opacity:1;fill-rule:nonzero;stroke:none;font-family:Arial;-inkscape-font-specification:Arial Bold">E</tspan></text>
<text
       x="102.86139"
       y="-519.79694"
       transform="scale(0.99999905,-1.0000009)"
       id="text4544"
       style="font-size:12.00016022px"><tspan
         x="102.86139 110.19349 117.52558 120.86163 128.19373 138.74187 145.44995 152.78206 156.7301 160.06615 163.4382 170.77029 174.71835 181.42644 186.0945 190.09055 196.76265 201.43071 208.17479 215.50688 222.09499"
         y="-519.79694"
         id="tspan4546"
         style="font-size:12.00016022px;font-variant:normal;font-weight:bold;writing-mode:lr-tb;fill:#000000;fill-opacity:1;fill-rule:nonzero;stroke:none;font-family:Arial;-inkscape-font-specification:Arial Bold">quipment Interference</tspan></text>
<text
       x="232.37312"
       y="-519.79694"
       transform="scale(0.99999905,-1.0000009)"
       id="text4548"
       style="font-size:12.00016022px"><tspan
         x="232.37312 240.65323 248.08133 252.07738 259.36148 266.69357 271.36163 274.69769 281.42978 288.13788 292.13391 295.46997 302.80206 310.13416 316.80624"
         y="-519.79694"
         id="tspan4550"
         style="font-size:12.00016022px;font-variant:normal;font-weight:bold;writing-mode:lr-tb;fill:#000000;fill-opacity:1;fill-rule:nonzero;stroke:none;font-family:Arial;-inkscape-font-specification:Arial Bold">Authorisations </tspan></text>
<text
       x="320.21429"
       y="-519.79694"
       transform="scale(0.99999905,-1.0000009)"
       id="text4552"
       style="font-size:12.00016022px"><tspan
         x="320.21429"
         y="-519.79694"
         id="tspan4554"
         style="font-size:12.00016022px;font-variant:normal;font-weight:bold;writing-mode:lr-tb;fill:#000000;fill-opacity:1;fill-rule:nonzero;stroke:none;font-family:Arial;-inkscape-font-specification:Arial Bold">–</tspan></text>
<text
       x="330.31442"
       y="-519.79694"
       transform="scale(0.99999905,-1.0000009)"
       id="text4556"
       style="font-size:12.00016022px"><tspan
         x="330.31442 340.27457 343.6106 350.23468 353.57074 356.94278 364.97089 368.21094 376.23904 379.57507 382.94711 392.28326 400.94736 409.46747 418.80359 422.17566 428.88373 436.21585 443.54794 446.88397 453.59207 458.26013 468.83228 475.54037 482.87247 486.2085 490.20456 497.53665 502.20471 508.8768 515.50092"
         y="-519.79694"
         id="tspan4558"
         style="font-size:12.00016022px;font-variant:normal;font-weight:bold;writing-mode:lr-tb;fill:#000000;fill-opacity:1;fill-rule:nonzero;stroke:none;font-family:Arial;-inkscape-font-specification:Arial Bold">MI5, SIS, GCHQ and armed forces</tspan></text>
<path
       d="m 54.000687,517.27738 468.225803,0 0,1.20002 -468.225803,0 0,-1.20002 z"
       id="path4560"
       style="fill:#000000;fill-opacity:1;fill-rule:evenodd;stroke:none" /><g
       transform="matrix(1.0000124,0,0,1.0000143,1.7764e-5,-1.654e-5)"
       id="g4562"><g
         clip-path="url(#clipPath4566)"
         id="g4564"><path
           d="m 48.12,517.03 0.48,0 0,13.8 -0.48,0 0,-13.8 z"
           id="path4570"
           style="fill:#000000;fill-opacity:1;fill-rule:evenodd;stroke:none" /><path
           d="m 546.82,517.03 0.48004,0 0,13.8 -0.48004,0 0,-13.8 z"
           id="path4572"
           style="fill:#000000;fill-opacity:1;fill-rule:evenodd;stroke:none" /></g></g><g
       transform="matrix(1.0000124,0,0,1.0000143,1.7764e-5,-1.654e-5)"
       id="g4574"><g
         clip-path="url(#clipPath4578)"
         id="g4576"><path
           d="m 48.12,503.23 0.48,0 0,13.8 -0.48,0 0,-13.8 z"
           id="path4582"
           style="fill:#000000;fill-opacity:1;fill-rule:evenodd;stroke:none" /><path
           d="m 546.82,503.23 0.48004,0 0,13.8 -0.48004,0 0,-13.8 z"
           id="path4584"
           style="fill:#000000;fill-opacity:1;fill-rule:evenodd;stroke:none" /></g></g><g
       transform="matrix(1.0000124,0,0,1.0000143,1.7764e-5,-1.654e-5)"
       id="g4586"><g
         clip-path="url(#clipPath4590)"
         id="g4588"><path
           d="m 48.12,489.43 0.48,0 0,13.8 -0.48,0 0,-13.8 z"
           id="path4594"
           style="fill:#000000;fill-opacity:1;fill-rule:evenodd;stroke:none" /><path
           d="m 546.82,489.43 0.48004,0 0,13.8 -0.48004,0 0,-13.8 z"
           id="path4596"
           style="fill:#000000;fill-opacity:1;fill-rule:evenodd;stroke:none" /></g></g><g
       transform="matrix(1.0000124,0,0,1.0000143,1.7764e-5,-1.654e-5)"
       id="g4598"><g
         clip-path="url(#clipPath4602)"
         id="g4600"><path
           d="m 48.12,475.63 0.48,0 0,13.8 -0.48,0 0,-13.8 z"
           id="path4606"
           style="fill:#000000;fill-opacity:1;fill-rule:evenodd;stroke:none" /><path
           d="m 546.82,475.63 0.48004,0 0,13.8 -0.48004,0 0,-13.8 z"
           id="path4608"
           style="fill:#000000;fill-opacity:1;fill-rule:evenodd;stroke:none" /></g></g><g
       transform="matrix(1.0000124,0,0,1.0000143,1.7764e-5,-1.654e-5)"
       id="g4610"><g
         clip-path="url(#clipPath4614)"
         id="g4612"><path
           d="m 48.12,461.83 0.48,0 0,13.8 -0.48,0 0,-13.8 z"
           id="path4618"
           style="fill:#000000;fill-opacity:1;fill-rule:evenodd;stroke:none" /><path
           d="m 546.82,461.83 0.48004,0 0,13.8 -0.48004,0 0,-13.8 z"
           id="path4620"
           style="fill:#000000;fill-opacity:1;fill-rule:evenodd;stroke:none" /></g></g><g
       transform="matrix(1.0000124,0,0,1.0000143,1.7764e-5,-1.654e-5)"
       id="g4622"><g
         clip-path="url(#clipPath4626)"
         id="g4624"><path
           d="m 48.12,448.03 0.48,0 0,13.8 -0.48,0 0,-13.8 z"
           id="path4630"
           style="fill:#000000;fill-opacity:1;fill-rule:evenodd;stroke:none" /><path
           d="m 546.82,448.03 0.48004,0 0,13.8 -0.48004,0 0,-13.8 z"
           id="path4632"
           style="fill:#000000;fill-opacity:1;fill-rule:evenodd;stroke:none" /></g></g><g
       transform="matrix(1.0000124,0,0,1.0000143,1.7764e-5,-1.654e-5)"
       id="g4634"><g
         clip-path="url(#clipPath4638)"
         id="g4636"><path
           d="m 48.12,434.23 0.48,0 0,13.8 -0.48,0 0,-13.8 z"
           id="path4642"
           style="fill:#000000;fill-opacity:1;fill-rule:evenodd;stroke:none" /><path
           d="m 546.82,434.23 0.48004,0 0,13.8 -0.48004,0 0,-13.8 z"
           id="path4644"
           style="fill:#000000;fill-opacity:1;fill-rule:evenodd;stroke:none" /></g></g><g
       transform="matrix(1.0000124,0,0,1.0000143,1.7764e-5,-1.654e-5)"
       id="g4646"><g
         clip-path="url(#clipPath4650)"
         id="g4648"><path
           d="m 48.12,420.43 0.48,0 0,13.8 -0.48,0 0,-13.8 z"
           id="path4654"
           style="fill:#000000;fill-opacity:1;fill-rule:evenodd;stroke:none" /><path
           d="m 546.82,420.43 0.48004,0 0,13.8 -0.48004,0 0,-13.8 z"
           id="path4656"
           style="fill:#000000;fill-opacity:1;fill-rule:evenodd;stroke:none" /></g></g><g
       transform="matrix(1.0000124,0,0,1.0000143,1.7764e-5,-1.654e-5)"
       id="g4658"><g
         clip-path="url(#clipPath4662)"
         id="g4660"><path
           d="m 48.12,406.63 0.48,0 0,13.8 -0.48,0 0,-13.8 z"
           id="path4666"
           style="fill:#000000;fill-opacity:1;fill-rule:evenodd;stroke:none" /><path
           d="m 546.82,406.63 0.48004,0 0,13.8 -0.48004,0 0,-13.8 z"
           id="path4668"
           style="fill:#000000;fill-opacity:1;fill-rule:evenodd;stroke:none" /></g></g><g
       transform="matrix(1.0000124,0,0,1.0000143,1.7764e-5,-1.654e-5)"
       id="g4670"><g
         clip-path="url(#clipPath4674)"
         id="g4672"><path
           d="m 48.12,392.83 0.48,0 0,13.8 -0.48,0 0,-13.8 z"
           id="path4678"
           style="fill:#000000;fill-opacity:1;fill-rule:evenodd;stroke:none" /><path
           d="m 546.82,392.83 0.48004,0 0,13.8 -0.48004,0 0,-13.8 z"
           id="path4680"
           style="fill:#000000;fill-opacity:1;fill-rule:evenodd;stroke:none" /></g></g><g
       transform="matrix(1.0000124,0,0,1.0000143,1.7764e-5,-1.654e-5)"
       id="g4682"><g
         clip-path="url(#clipPath4686)"
         id="g4684"><path
           d="m 48.12,379.01 0.48,0 0,13.824 -0.48,0 0,-13.824 z"
           id="path4690"
           style="fill:#000000;fill-opacity:1;fill-rule:evenodd;stroke:none" /><path
           d="m 546.82,379.01 0.48004,0 0,13.824 -0.48004,0 0,-13.824 z"
           id="path4692"
           style="fill:#000000;fill-opacity:1;fill-rule:evenodd;stroke:none" /></g></g><g
       transform="matrix(1.0000124,0,0,1.0000143,1.7764e-5,-1.654e-5)"
       id="g4694"><g
         clip-path="url(#clipPath4698)"
         id="g4696"><path
           d="m 48.12,365.21 0.48,0 0,13.8 -0.48,0 0,-13.8 z"
           id="path4702"
           style="fill:#000000;fill-opacity:1;fill-rule:evenodd;stroke:none" /><path
           d="m 546.82,365.21 0.48004,0 0,13.8 -0.48004,0 0,-13.8 z"
           id="path4704"
           style="fill:#000000;fill-opacity:1;fill-rule:evenodd;stroke:none" /></g></g><g
       transform="matrix(1.0000124,0,0,1.0000143,1.7764e-5,-1.654e-5)"
       id="g4706"><g
         clip-path="url(#clipPath4710)"
         id="g4708"><path
           d="m 48.12,351.41 0.48,0 0,13.8 -0.48,0 0,-13.8 z"
           id="path4714"
           style="fill:#000000;fill-opacity:1;fill-rule:evenodd;stroke:none" /><path
           d="m 546.82,351.41 0.48004,0 0,13.8 -0.48004,0 0,-13.8 z"
           id="path4716"
           style="fill:#000000;fill-opacity:1;fill-rule:evenodd;stroke:none" /></g></g><g
       transform="matrix(1.0000124,0,0,1.0000143,1.7764e-5,-1.654e-5)"
       id="g4718"><g
         clip-path="url(#clipPath4722)"
         id="g4720"><path
           d="m 48.12,337.61 0.48,0 0,13.8 -0.48,0 0,-13.8 z"
           id="path4726"
           style="fill:#000000;fill-opacity:1;fill-rule:evenodd;stroke:none" /><path
           d="m 546.82,337.61 0.48004,0 0,13.8 -0.48004,0 0,-13.8 z"
           id="path4728"
           style="fill:#000000;fill-opacity:1;fill-rule:evenodd;stroke:none" /></g></g><g
       transform="matrix(1.0000124,0,0,1.0000143,1.7764e-5,-1.654e-5)"
       id="g4730"><g
         clip-path="url(#clipPath4734)"
         id="g4732"><path
           d="m 48.12,323.81 0.48,0 0,13.8 -0.48,0 0,-13.8 z"
           id="path4738"
           style="fill:#000000;fill-opacity:1;fill-rule:evenodd;stroke:none" /><path
           d="m 546.82,323.81 0.48004,0 0,13.8 -0.48004,0 0,-13.8 z"
           id="path4740"
           style="fill:#000000;fill-opacity:1;fill-rule:evenodd;stroke:none" /></g></g><g
       transform="matrix(1.0000124,0,0,1.0000143,1.7764e-5,-1.654e-5)"
       id="g4742"><g
         clip-path="url(#clipPath4746)"
         id="g4744"><path
           d="m 48.12,310.01 0.48,0 0,13.8 -0.48,0 0,-13.8 z"
           id="path4750"
           style="fill:#000000;fill-opacity:1;fill-rule:evenodd;stroke:none" /><path
           d="m 546.82,310.01 0.48004,0 0,13.8 -0.48004,0 0,-13.8 z"
           id="path4752"
           style="fill:#000000;fill-opacity:1;fill-rule:evenodd;stroke:none" /></g></g><g
       transform="matrix(1.0000124,0,0,1.0000143,1.7764e-5,-1.654e-5)"
       id="g4754"><g
         clip-path="url(#clipPath4758)"
         id="g4756"><path
           d="m 48.12,296.21 0.48,0 0,13.8 -0.48,0 0,-13.8 z"
           id="path4762"
           style="fill:#000000;fill-opacity:1;fill-rule:evenodd;stroke:none" /><path
           d="m 546.82,296.21 0.48004,0 0,13.8 -0.48004,0 0,-13.8 z"
           id="path4764"
           style="fill:#000000;fill-opacity:1;fill-rule:evenodd;stroke:none" /></g></g><g
       transform="matrix(1.0000124,0,0,1.0000143,1.7764e-5,-1.654e-5)"
       id="g4766"><g
         clip-path="url(#clipPath4770)"
         id="g4768"><path
           d="m 48.12,282.41 0.48,0 0,13.8 -0.48,0 0,-13.8 z"
           id="path4774"
           style="fill:#000000;fill-opacity:1;fill-rule:evenodd;stroke:none" /><path
           d="m 546.82,282.41 0.48004,0 0,13.8 -0.48004,0 0,-13.8 z"
           id="path4776"
           style="fill:#000000;fill-opacity:1;fill-rule:evenodd;stroke:none" /></g></g><g
       transform="matrix(1.0000124,0,0,1.0000143,1.7764e-5,-1.654e-5)"
       id="g4778"><g
         clip-path="url(#clipPath4782)"
         id="g4780"><path
           d="m 48.12,268.61 0.48,0 0,13.8 -0.48,0 0,-13.8 z"
           id="path4786"
           style="fill:#000000;fill-opacity:1;fill-rule:evenodd;stroke:none" /><path
           d="m 546.82,268.61 0.48004,0 0,13.8 -0.48004,0 0,-13.8 z"
           id="path4788"
           style="fill:#000000;fill-opacity:1;fill-rule:evenodd;stroke:none" /></g></g><g
       transform="matrix(1.0000124,0,0,1.0000143,1.7764e-5,-1.654e-5)"
       id="g4790"><g
         clip-path="url(#clipPath4794)"
         id="g4792"><path
           d="m 48.12,254.81 0.48,0 0,13.8 -0.48,0 0,-13.8 z"
           id="path4798"
           style="fill:#000000;fill-opacity:1;fill-rule:evenodd;stroke:none" /><path
           d="m 546.82,254.81 0.48004,0 0,13.8 -0.48004,0 0,-13.8 z"
           id="path4800"
           style="fill:#000000;fill-opacity:1;fill-rule:evenodd;stroke:none" /></g></g><g
       transform="matrix(1.0000124,0,0,1.0000143,1.7764e-5,-1.654e-5)"
       id="g4802"><g
         clip-path="url(#clipPath4806)"
         id="g4804"><path
           d="m 48.12,241.01 0.48,0 0,13.8 -0.48,0 0,-13.8 z"
           id="path4810"
           style="fill:#000000;fill-opacity:1;fill-rule:evenodd;stroke:none" /><path
           d="m 546.82,241.01 0.48004,0 0,13.8 -0.48004,0 0,-13.8 z"
           id="path4812"
           style="fill:#000000;fill-opacity:1;fill-rule:evenodd;stroke:none" /></g></g><g
       transform="matrix(1.0000124,0,0,1.0000143,1.7764e-5,-1.654e-5)"
       id="g4814"><g
         clip-path="url(#clipPath4818)"
         id="g4816"><path
           d="m 48.12,227.21 0.48,0 0,13.8 -0.48,0 0,-13.8 z"
           id="path4822"
           style="fill:#000000;fill-opacity:1;fill-rule:evenodd;stroke:none" /><path
           d="m 546.82,227.21 0.48004,0 0,13.8 -0.48004,0 0,-13.8 z"
           id="path4824"
           style="fill:#000000;fill-opacity:1;fill-rule:evenodd;stroke:none" /></g></g><g
       transform="matrix(1.0000124,0,0,1.0000143,1.7764e-5,-1.654e-5)"
       id="g4826"><g
         clip-path="url(#clipPath4830)"
         id="g4828"><path
           d="m 48.12,213.41 0.48,0 0,13.8 -0.48,0 0,-13.8 z"
           id="path4834"
           style="fill:#000000;fill-opacity:1;fill-rule:evenodd;stroke:none" /><path
           d="m 546.82,213.41 0.48004,0 0,13.8 -0.48004,0 0,-13.8 z"
           id="path4836"
           style="fill:#000000;fill-opacity:1;fill-rule:evenodd;stroke:none" /></g></g><g
       transform="matrix(1.0000124,0,0,1.0000143,1.7764e-5,-1.654e-5)"
       id="g4838"><g
         clip-path="url(#clipPath4842)"
         id="g4840"><path
           d="m 48.12,199.58 0.48,0 0,13.824 -0.48,0 0,-13.824 z"
           id="path4846"
           style="fill:#000000;fill-opacity:1;fill-rule:evenodd;stroke:none" /><path
           d="m 546.82,199.58 0.48004,0 0,13.824 -0.48004,0 0,-13.824 z"
           id="path4848"
           style="fill:#000000;fill-opacity:1;fill-rule:evenodd;stroke:none" /></g></g><g
       transform="matrix(1.0000124,0,0,1.0000143,1.7764e-5,-1.654e-5)"
       id="g4850"><g
         clip-path="url(#clipPath4854)"
         id="g4852"><path
           d="m 48.12,185.78 0.48,0 0,13.8 -0.48,0 0,-13.8 z"
           id="path4858"
           style="fill:#000000;fill-opacity:1;fill-rule:evenodd;stroke:none" /><path
           d="m 546.82,185.78 0.48004,0 0,13.8 -0.48004,0 0,-13.8 z"
           id="path4860"
           style="fill:#000000;fill-opacity:1;fill-rule:evenodd;stroke:none" /></g></g><g
       transform="matrix(1.0000124,0,0,1.0000143,1.7764e-5,-1.654e-5)"
       id="g4862"><g
         clip-path="url(#clipPath4866)"
         id="g4864"><path
           d="m 48.12,171.98 0.48,0 0,13.8 -0.48,0 0,-13.8 z"
           id="path4870"
           style="fill:#000000;fill-opacity:1;fill-rule:evenodd;stroke:none" /><path
           d="m 546.82,171.98 0.48004,0 0,13.8 -0.48004,0 0,-13.8 z"
           id="path4872"
           style="fill:#000000;fill-opacity:1;fill-rule:evenodd;stroke:none" /></g></g><g
       transform="matrix(1.0000124,0,0,1.0000143,1.7764e-5,-1.654e-5)"
       id="g4874"><g
         clip-path="url(#clipPath4878)"
         id="g4876"><path
           d="m 48.12,156.62 0.48,0 0,0.48004 -0.48,0 0,-0.48004 z"
           id="path4882"
           style="fill:#000000;fill-opacity:1;fill-rule:evenodd;stroke:none" /><path
           d="m 48.12,156.62 0.48,0 0,0.48004 -0.48,0 0,-0.48004 z"
           id="path4884"
           style="fill:#000000;fill-opacity:1;fill-rule:evenodd;stroke:none" /><path
           d="m 48.6,156.62 498.22,0 0,0.48004 -498.22,0 0,-0.48004 z"
           id="path4886"
           style="fill:#000000;fill-opacity:1;fill-rule:evenodd;stroke:none" /><path
           d="m 546.82,156.62 0.48004,0 0,0.48004 -0.48004,0 0,-0.48004 z"
           id="path4888"
           style="fill:#000000;fill-opacity:1;fill-rule:evenodd;stroke:none" /><path
           d="m 546.82,156.62 0.48004,0 0,0.48004 -0.48004,0 0,-0.48004 z"
           id="path4890"
           style="fill:#000000;fill-opacity:1;fill-rule:evenodd;stroke:none" /><path
           d="m 48.12,157.1 0.48,0 0,14.88 -0.48,0 0,-14.88 z"
           id="path4892"
           style="fill:#000000;fill-opacity:1;fill-rule:evenodd;stroke:none" /><path
           d="m 546.82,157.1 0.48004,0 0,14.88 -0.48004,0 0,-14.88 z"
           id="path4894"
           style="fill:#000000;fill-opacity:1;fill-rule:evenodd;stroke:none" /></g></g></g></svg>
