<?xml version="1.0" encoding="UTF-8" standalone="no"?>
<!-- Created with Inkscape (http://www.inkscape.org/) -->

<svg
   xmlns:dc="http://purl.org/dc/elements/1.1/"
   xmlns:cc="http://creativecommons.org/ns#"
   xmlns:rdf="http://www.w3.org/1999/02/22-rdf-syntax-ns#"
   xmlns:svg="http://www.w3.org/2000/svg"
   xmlns="http://www.w3.org/2000/svg"
   version="1.1"
   width="723.97491"
   height="589.82812"
   id="svg4246">
  <defs
     id="defs4248">
    <clipPath
       id="clipPath3207">
      <path
         d="m 0.00125,-0.12134 595.44,0 0,842.04 -595.44,0 0,-842.04 z"
         id="path3209" />
    </clipPath>
    <clipPath
       id="clipPath3243">
      <path
         d="m 0.00125,-0.12134 595.44,0 0,842.04 -595.44,0 0,-842.04 z"
         id="path3245" />
    </clipPath>
    <clipPath
       id="clipPath3255">
      <path
         d="m 0.00125,-0.12134 595.44,0 0,842.04 -595.44,0 0,-842.04 z"
         id="path3257" />
    </clipPath>
    <clipPath
       id="clipPath3267">
      <path
         d="m 0.00125,-0.12134 595.44,0 0,842.04 -595.44,0 0,-842.04 z"
         id="path3269" />
    </clipPath>
    <clipPath
       id="clipPath3279">
      <path
         d="m 0.00125,-0.12134 595.44,0 0,842.04 -595.44,0 0,-842.04 z"
         id="path3281" />
    </clipPath>
    <clipPath
       id="clipPath3291">
      <path
         d="m 0.00125,-0.12134 595.44,0 0,842.04 -595.44,0 0,-842.04 z"
         id="path3293" />
    </clipPath>
    <clipPath
       id="clipPath3303">
      <path
         d="m 0.00125,-0.12134 595.44,0 0,842.04 -595.44,0 0,-842.04 z"
         id="path3305" />
    </clipPath>
    <clipPath
       id="clipPath3315">
      <path
         d="m 0.00125,-0.12134 595.44,0 0,842.04 -595.44,0 0,-842.04 z"
         id="path3317" />
    </clipPath>
    <clipPath
       id="clipPath3327">
      <path
         d="m 0.00125,-0.12134 595.44,0 0,842.04 -595.44,0 0,-842.04 z"
         id="path3329" />
    </clipPath>
    <clipPath
       id="clipPath3339">
      <path
         d="m 0.00125,-0.12134 595.44,0 0,842.04 -595.44,0 0,-842.04 z"
         id="path3341" />
    </clipPath>
    <clipPath
       id="clipPath3351">
      <path
         d="m 0.00125,-0.12134 595.44,0 0,842.04 -595.44,0 0,-842.04 z"
         id="path3353" />
    </clipPath>
    <clipPath
       id="clipPath3363">
      <path
         d="m 0.00125,-0.12134 595.44,0 0,842.04 -595.44,0 0,-842.04 z"
         id="path3365" />
    </clipPath>
    <clipPath
       id="clipPath3375">
      <path
         d="m 0.00125,-0.12134 595.44,0 0,842.04 -595.44,0 0,-842.04 z"
         id="path3377" />
    </clipPath>
    <clipPath
       id="clipPath3387">
      <path
         d="m 0.00125,-0.12134 595.44,0 0,842.04 -595.44,0 0,-842.04 z"
         id="path3389" />
    </clipPath>
    <clipPath
       id="clipPath3399">
      <path
         d="m 0.00125,-0.12134 595.44,0 0,842.04 -595.44,0 0,-842.04 z"
         id="path3401" />
    </clipPath>
    <clipPath
       id="clipPath3411">
      <path
         d="m 0.00125,-0.12134 595.44,0 0,842.04 -595.44,0 0,-842.04 z"
         id="path3413" />
    </clipPath>
    <clipPath
       id="clipPath3423">
      <path
         d="m 0.00125,-0.12134 595.44,0 0,842.04 -595.44,0 0,-842.04 z"
         id="path3425" />
    </clipPath>
    <clipPath
       id="clipPath3435">
      <path
         d="m 0.00125,-0.12134 595.44,0 0,842.04 -595.44,0 0,-842.04 z"
         id="path3437" />
    </clipPath>
    <clipPath
       id="clipPath3447">
      <path
         d="m 0.00125,-0.12134 595.44,0 0,842.04 -595.44,0 0,-842.04 z"
         id="path3449" />
    </clipPath>
    <clipPath
       id="clipPath3459">
      <path
         d="m 0.00125,-0.12134 595.44,0 0,842.04 -595.44,0 0,-842.04 z"
         id="path3461" />
    </clipPath>
    <clipPath
       id="clipPath3471">
      <path
         d="m 0.00125,-0.12134 595.44,0 0,842.04 -595.44,0 0,-842.04 z"
         id="path3473" />
    </clipPath>
    <clipPath
       id="clipPath3483">
      <path
         d="m 0.00125,-0.12134 595.44,0 0,842.04 -595.44,0 0,-842.04 z"
         id="path3485" />
    </clipPath>
    <clipPath
       id="clipPath3495">
      <path
         d="m 0.00125,-0.12134 595.44,0 0,842.04 -595.44,0 0,-842.04 z"
         id="path3497" />
    </clipPath>
    <clipPath
       id="clipPath3507">
      <path
         d="m 0.00125,-0.12134 595.44,0 0,842.04 -595.44,0 0,-842.04 z"
         id="path3509" />
    </clipPath>
    <clipPath
       id="clipPath3519">
      <path
         d="m 0.00125,-0.12134 595.44,0 0,842.04 -595.44,0 0,-842.04 z"
         id="path3521" />
    </clipPath>
    <clipPath
       id="clipPath3531">
      <path
         d="m 0.00125,-0.12134 595.44,0 0,842.04 -595.44,0 0,-842.04 z"
         id="path3533" />
    </clipPath>
    <clipPath
       id="clipPath3031">
      <path
         d="m 0,0 293.4,0 0,307.07 L 0,307.07 0,0 z"
         id="path3033" />
    </clipPath>
  </defs>
  <metadata
     id="metadata4251">
    <rdf:RDF>
      <cc:Work
         rdf:about="">
        <dc:format>image/svg+xml</dc:format>
        <dc:type
           rdf:resource="http://purl.org/dc/dcmitype/StillImage" />
        <dc:title></dc:title>
      </cc:Work>
    </rdf:RDF>
  </metadata>
  <g
     transform="translate(-12.298264,-457.4481)"
     id="layer1">
    <g
       transform="matrix(1.2486615,0,0,-1.2472472,191.02329,947.7422)"
       id="g3027">
      <g
         clip-path="url(#clipPath3031)"
         id="g3029">
        <path
           d="m 0.48,261.11 115.32,0 0,45.48 -115.32,0 0,-45.48 z"
           id="path3035"
           style="fill:#f2f2f2;fill-opacity:1;fill-rule:evenodd;stroke:none" />
        <path
           d="m 0.48,261.11 115.32,0 0,45.48 -115.32,0 0,-45.48 z"
           id="path3037"
           style="fill:none;stroke:#000000;stroke-width:0.95999998;stroke-linecap:butt;stroke-linejoin:miter;stroke-miterlimit:10;stroke-opacity:1;stroke-dasharray:none" />
        <text
           transform="matrix(1,0,0,-1,22.68,292.5)"
           id="text3039">
          <tspan
             x="0 2.5099199 6.36444 8.6154003 11.99184 17.260679 22.18092 24.431881 31.55328 36.32412 39.800159 43.276199 48.08688 53.355721 56.692322 58.98312 61.981079 67.249924 70.72596"
             y="0"
             id="tspan3041"
             style="font-size:9.96000004px;font-variant:normal;font-weight:normal;writing-mode:lr-tb;fill:#000000;fill-opacity:1;fill-rule:nonzero;stroke:none;font-family:Calibri;-inkscape-font-specification:Calibri">Is the warrant for</tspan>
        </text>
        <text
           transform="matrix(1,0,0,-1,11.88,280.48)"
           id="text3043">
          <tspan
             x="0 3.8445599 8.7648001 12.24084 14.53164 19.78056 25.079281 28.92384 31.174801 35.387878 38.863918 41.15472 49.112759 54.00312 56.513039 59.022961 64.291801 69.062637 72.439079 74.729881 79.978798 85.267563 90.038399 92.329201"
             y="0"
             id="tspan3045"
             style="font-size:9.96000004px;font-variant:normal;font-weight:normal;writing-mode:lr-tb;fill:#000000;fill-opacity:1;fill-rule:nonzero;stroke:none;font-family:Calibri;-inkscape-font-specification:Calibri">serious crime, national</tspan>
        </text>
        <text
           transform="matrix(1,0,0,-1,23.64,268.48)"
           id="text3047">
          <tspan
             x="0 3.8445599 8.7648001 12.97788 18.236759 21.712799 24.003599 27.3402 31.90188 34.15284 39.451561 42.927601 45.198479 50.108761 58.97316 64.391403"
             y="0"
             id="tspan3049"
             style="font-size:9.96000004px;font-variant:normal;font-weight:normal;writing-mode:lr-tb;fill:#000000;fill-opacity:1;fill-rule:nonzero;stroke:none;font-family:Calibri;-inkscape-font-specification:Calibri">security or EWB?</tspan>
        </text>
        <path
           d="m 0.48,174.23 115.32,0 0,45.48 -115.32,0 0,-45.48 z"
           id="path3051"
           style="fill:#f2f2f2;fill-opacity:1;fill-rule:evenodd;stroke:none" />
        <path
           d="m 0.48,174.23 115.32,0 0,45.48 -115.32,0 0,-45.48 z"
           id="path3053"
           style="fill:none;stroke:#000000;stroke-width:0.95999998;stroke-linecap:butt;stroke-linejoin:miter;stroke-miterlimit:10;stroke-opacity:1;stroke-dasharray:none" />
        <text
           transform="matrix(1,0,0,-1,9.72,211.55)"
           id="text3055">
          <tspan
             x="0 2.5099199 6.36444 8.6154003 11.99184 17.260679 22.18092 24.431881 29.003519 33.9636 38.136841 41.612881 46.533119 49.86972 54.680401 58.156441 62.70816 65.218079 70.486923 73.484879 75.646202 80.217842 83.554443 88.355164 91.691757 96.65184"
             y="0"
             id="tspan3057"
             style="font-size:9.96000004px;font-variant:normal;font-weight:normal;writing-mode:lr-tb;fill:#000000;fill-opacity:1;fill-rule:nonzero;stroke:none;font-family:Calibri;-inkscape-font-specification:Calibri">Is the Secretary of State</tspan>
        </text>
        <text
           transform="matrix(1,0,0,-1,11.88,199.55)"
           id="text3059">
          <tspan
             x="0 3.8445599 8.6154003 11.99184 14.28264 18.107281 21.10524 23.39604 28.30632 33.575161 35.826118 39.20256 44.471401 49.39164 51.642601 58.764 63.53484 67.01088 70.486923 75.2976 80.566437 83.903038 86.19384 88.484642 92.30928"
             y="0"
             id="tspan3061"
             style="font-size:9.96000004px;font-variant:normal;font-weight:normal;writing-mode:lr-tb;fill:#000000;fill-opacity:1;fill-rule:nonzero;stroke:none;font-family:Calibri;-inkscape-font-specification:Calibri">satisfied the warrant is</tspan>
        </text>
        <text
           transform="matrix(1,0,0,-1,29.28,187.55)"
           id="text3063">
          <tspan
             x="0 5.2715521 10.193664 14.416896 19.309055 23.152897 26.996737 31.779072 35.263489 39.826176 42.212353 46.994686 52.286209 57.557758"
             y="0"
             id="tspan3065"
             style="font-size:9.98400021px;font-variant:normal;font-weight:normal;writing-mode:lr-tb;fill:#000000;fill-opacity:1;fill-rule:nonzero;stroke:none;font-family:Calibri;-inkscape-font-specification:Calibri">necessary and</tspan>
        </text>
        <text
           transform="matrix(1,0,0,-1,27.12,175.53)"
           id="text3067">
          <tspan
             x="0 5.2688398 8.7448797 14.02368 19.292521 24.561359 28.037399 31.374001 33.664799 38.95356 44.222401 48.99324 52.369678 57.289921"
             y="0"
             id="tspan3069"
             style="font-size:9.96000004px;font-variant:normal;font-weight:normal;writing-mode:lr-tb;fill:#000000;fill-opacity:1;fill-rule:nonzero;stroke:none;font-family:Calibri;-inkscape-font-specification:Calibri">proportionate?</tspan>
        </text>
        <path
           d="m 0.48,87.35 115.32,0 0,45.36 -115.32,0 0,-45.36 z"
           id="path3071"
           style="fill:#f2f2f2;fill-opacity:1;fill-rule:evenodd;stroke:none" />
        <path
           d="m 0.48,87.35 115.32,0 0,45.36 -115.32,0 0,-45.36 z"
           id="path3073"
           style="fill:none;stroke:#000000;stroke-width:0.95999998;stroke-linecap:butt;stroke-linejoin:miter;stroke-miterlimit:10;stroke-opacity:1;stroke-dasharray:none" />
        <text
           transform="matrix(1,0,0,-1,26.88,118.6)"
           id="text3075">
          <tspan
             x="0 6.2349601 11.0058 14.90016 17.151119 20.48772 25.78644 30.70668"
             y="0"
             id="tspan3077"
             style="font-size:9.96000004px;font-variant:normal;font-weight:normal;writing-mode:lr-tb;fill:#000000;fill-opacity:1;fill-rule:nonzero;stroke:none;font-family:Calibri;-inkscape-font-specification:Calibri">Has the</tspan>
        </text>
        <text
           transform="matrix(1,0,0,-1,59.904,118.6)"
           id="text3079">
          <tspan
             x="0"
             y="0"
             id="tspan3081"
             style="font-size:9.96000004px;font-variant:normal;font-weight:normal;writing-mode:lr-tb;fill:#000000;fill-opacity:1;fill-rule:nonzero;stroke:none;font-family:Calibri;-inkscape-font-specification:Calibri">J</tspan>
        </text>
        <text
           transform="matrix(1,0,0,-1,63.024,118.6)"
           id="text3083">
          <tspan
             x="0 5.2688398 10.53768 12.82848 17.041559 19.302481 24.07332 26.36412"
             y="0"
             id="tspan3085"
             style="font-size:9.96000004px;font-variant:normal;font-weight:normal;writing-mode:lr-tb;fill:#000000;fill-opacity:1;fill-rule:nonzero;stroke:none;font-family:Calibri;-inkscape-font-specification:Calibri">udicial</tspan>
        </text>
        <text
           transform="matrix(1,0,0,-1,8.64,106.6)"
           id="text3087">
          <tspan
             x="0"
             y="0"
             id="tspan3089"
             style="font-size:9.96000004px;font-variant:normal;font-weight:normal;writing-mode:lr-tb;fill:#000000;fill-opacity:1;fill-rule:nonzero;stroke:none;font-family:Calibri;-inkscape-font-specification:Calibri">C</tspan>
        </text>
        <text
           transform="matrix(1,0,0,-1,13.92,106.6)"
           id="text3091">
          <tspan
             x="0 5.2688398 13.18704 21.10524 23.39604 27.22068 31.065241 33.356041 38.604961 43.893719 48.813961 52.290001 54.799919 59.570759 64.869476 70.138321 73.614357 78.893158 83.33532 88.255562 93.524399"
             y="0"
             id="tspan3093"
             style="font-size:9.96000004px;font-variant:normal;font-weight:normal;writing-mode:lr-tb;fill:#000000;fill-opacity:1;fill-rule:nonzero;stroke:none;font-family:Calibri;-inkscape-font-specification:Calibri">ommissioner approved</tspan>
        </text>
        <text
           transform="matrix(1,0,0,-1,31.8,94.598)"
           id="text3095">
          <tspan
             x="0 3.3366001 8.6253595 13.5456 15.79656 22.917959 27.688801 31.164841 34.640881 39.451561 44.720402 48.056999"
             y="0"
             id="tspan3097"
             style="font-size:9.96000004px;font-variant:normal;font-weight:normal;writing-mode:lr-tb;fill:#000000;fill-opacity:1;fill-rule:nonzero;stroke:none;font-family:Calibri;-inkscape-font-specification:Calibri">the warrant?</tspan>
        </text>
        <path
           d="m 0.48,0.46964 115.32,0 0,45.36 -115.32,0 0,-45.36 z"
           id="path3099"
           style="fill:#f2f2f2;fill-opacity:1;fill-rule:evenodd;stroke:none" />
        <path
           d="m 0.48,0.46964 115.32,0 0,45.36 -115.32,0 0,-45.36 z"
           id="path3101"
           style="fill:none;stroke:#000000;stroke-width:0.95999998;stroke-linecap:butt;stroke-linejoin:miter;stroke-miterlimit:10;stroke-opacity:1;stroke-dasharray:none" />
        <text
           transform="matrix(1,0,0,-1,22.08,25.646)"
           id="text3103">
          <tspan
             x="0 5.9959202 11.38428 16.77264 20.35824 25.746599 31.13496 34.720558 37.120918 42.041161 45.49728 50.547001 52.588799 54.989159 60.018959 64.700157 69.620399 72.02076"
             y="0"
             id="tspan3105"
             style="font-size:9.96000004px;font-variant:normal;font-weight:bold;writing-mode:lr-tb;fill:#838383;fill-opacity:1;fill-rule:nonzero;stroke:none;font-family:Calibri;-inkscape-font-specification:Calibri Bold">Appropriate legal</tspan>
        </text>
        <text
           transform="matrix(1,0,0,-1,8.52,13.646)"
           id="text3107">
          <tspan
             x="0 4.9202399 10.3086 13.76472 19.182961 24.57132 28.156919 30.55728 34.531319 39.451561 42.907681 45.318001 50.70636 56.094719 58.256039 60.656399 64.63044 67.01088 69.41124 74.799599 77.190002 82.578362 84.978722 89.898956 94.092117"
             y="0"
             id="tspan3109"
             style="font-size:9.96000004px;font-variant:normal;font-weight:bold;writing-mode:lr-tb;fill:#838383;fill-opacity:1;fill-rule:nonzero;stroke:none;font-family:Calibri;-inkscape-font-specification:Calibri Bold">authorisation is in place</tspan>
        </text>
        <path
           d="m 177.48,261.11 115.44,0 0,45.48 -115.44,0 0,-45.48 z"
           id="path3111"
           style="fill:#f2f2f2;fill-opacity:1;fill-rule:evenodd;stroke:none" />
        <path
           d="m 177.48,261.11 115.44,0 0,45.48 -115.44,0 0,-45.48 z"
           id="path3113"
           style="fill:none;stroke:#000000;stroke-width:0.95999998;stroke-linecap:butt;stroke-linejoin:miter;stroke-miterlimit:10;stroke-opacity:1;stroke-dasharray:none" />
        <text
           transform="matrix(1,0,0,-1,193.97,286.5)"
           id="text3115">
          <tspan
             x="0 4.6824961 9.6245756 16.323839 21.605375 24.36096 26.876928 32.038654 37.410049 42.83136 45.087746 53.264641 58.655998 62.639614 66.104065 68.360451 73.761795 79.133186 82.627586"
             y="0"
             id="tspan3117"
             style="font-size:9.98400021px;font-variant:normal;font-weight:bold;writing-mode:lr-tb;fill:#6b6b6b;fill-opacity:1;fill-rule:nonzero;stroke:none;font-family:Calibri;-inkscape-font-specification:Calibri Bold">STOP: You must not</tspan>
        </text>
        <text
           transform="matrix(1,0,0,-1,209.45,274.48)"
           id="text3119">
          <tspan
             x="0 4.9202399 9.1134005 14.50176 19.89012 22.29048 25.87608 30.90588 32.947681 38.33604 43.256279 46.712399"
             y="0"
             id="tspan3121"
             style="font-size:9.96000004px;font-variant:normal;font-weight:bold;writing-mode:lr-tb;fill:#6b6b6b;fill-opacity:1;fill-rule:nonzero;stroke:none;font-family:Calibri;-inkscape-font-specification:Calibri Bold">acquire data</tspan>
        </text>
        <path
           d="m 115.8,284.15 56.75,0 0,-0.48 -56.75,0 0,0.48 z m 55.75,2.76 6,-3 -6,-3 0,6 z"
           id="path3123"
           style="fill:#000000;fill-opacity:1;fill-rule:nonzero;stroke:none" />
        <path
           d="m 177.48,174.23 115.44,0 0,45.48 -115.44,0 0,-45.48 z"
           id="path3125"
           style="fill:#f2f2f2;fill-opacity:1;fill-rule:evenodd;stroke:none" />
        <path
           d="m 177.48,174.23 115.44,0 0,45.48 -115.44,0 0,-45.48 z"
           id="path3127"
           style="fill:none;stroke:#000000;stroke-width:0.95999998;stroke-linecap:butt;stroke-linejoin:miter;stroke-miterlimit:10;stroke-opacity:1;stroke-dasharray:none" />
        <text
           transform="matrix(1,0,0,-1,193.97,199.55)"
           id="text3129">
          <tspan
             x="0 4.6812 9.6113997 16.34436 21.603239 24.3522 26.87208 32.051281 37.40976 42.818039 45.069 53.246159 58.634521 62.608559 66.064682 68.34552 73.733879 79.122238 82.578362"
             y="0"
             id="tspan3131"
             style="font-size:9.96000004px;font-variant:normal;font-weight:bold;writing-mode:lr-tb;fill:#6b6b6b;fill-opacity:1;fill-rule:nonzero;stroke:none;font-family:Calibri;-inkscape-font-specification:Calibri Bold">STOP: You must not</tspan>
        </text>
        <text
           transform="matrix(1,0,0,-1,209.45,187.55)"
           id="text3133">
          <tspan
             x="0 4.932096 9.1054077 14.506752 19.898111 22.294271 25.888512 30.910463 32.967167 38.358528 43.290623 46.755074"
             y="0"
             id="tspan3135"
             style="font-size:9.98400021px;font-variant:normal;font-weight:bold;writing-mode:lr-tb;fill:#6b6b6b;fill-opacity:1;fill-rule:nonzero;stroke:none;font-family:Calibri;-inkscape-font-specification:Calibri Bold">acquire data</tspan>
        </text>
        <path
           d="m 177.48,87.35 115.44,0 0,45.36 -115.44,0 0,-45.36 z"
           id="path3137"
           style="fill:#f2f2f2;fill-opacity:1;fill-rule:evenodd;stroke:none" />
        <path
           d="m 177.48,87.35 115.44,0 0,45.36 -115.44,0 0,-45.36 z"
           id="path3139"
           style="fill:none;stroke:#000000;stroke-width:0.95999998;stroke-linecap:butt;stroke-linejoin:miter;stroke-miterlimit:10;stroke-opacity:1;stroke-dasharray:none" />
        <text
           transform="matrix(1,0,0,-1,193.97,112.6)"
           id="text3141">
          <tspan
             x="0 4.6812 9.6113997 16.34436 21.603239 24.3522 26.87208 32.051281 37.40976 42.818039 45.069 53.246159 58.634521 62.608559 66.064682 68.34552 73.733879 79.122238 82.578362"
             y="0"
             id="tspan3143"
             style="font-size:9.96000004px;font-variant:normal;font-weight:bold;writing-mode:lr-tb;fill:#6b6b6b;fill-opacity:1;fill-rule:nonzero;stroke:none;font-family:Calibri;-inkscape-font-specification:Calibri Bold">STOP: You must not</tspan>
        </text>
        <text
           transform="matrix(1,0,0,-1,209.45,100.6)"
           id="text3145">
          <tspan
             x="0 4.9202399 9.1134005 14.50176 19.89012 22.29048 25.87608 30.90588 32.947681 38.33604 43.256279 46.712399"
             y="0"
             id="tspan3147"
             style="font-size:9.96000004px;font-variant:normal;font-weight:bold;writing-mode:lr-tb;fill:#6b6b6b;fill-opacity:1;fill-rule:nonzero;stroke:none;font-family:Calibri;-inkscape-font-specification:Calibri Bold">acquire data</tspan>
        </text>
        <path
           d="m 115.8,196.67 56.75,0 0,0.48 -56.75,0 0,-0.48 z m 55.75,-2.76 6,3 -6,3 0,-6 z"
           id="path3149"
           style="fill:#000000;fill-opacity:1;fill-rule:nonzero;stroke:none" />
        <path
           d="m 115.8,109.79 56.75,0 0,0.48 -56.75,0 0,-0.48 z m 55.75,-2.76 6,3 -6,3 0,-6 z"
           id="path3151"
           style="fill:#000000;fill-opacity:1;fill-rule:nonzero;stroke:none" />
        <path
           d="m 58.32,261.11 0,-36.47 -0.48,0 0,36.47 0.48,0 z m 2.76,-35.47 -3,-6 -3,6 6,0 z"
           id="path3153"
           style="fill:#000000;fill-opacity:1;fill-rule:nonzero;stroke:none" />
        <path
           d="m 58.32,174.23 0,-36.47 -0.48,0 0,36.47 0.48,0 z m 2.76,-35.47 -3,-6 -3,6 6,0 z"
           id="path3155"
           style="fill:#000000;fill-opacity:1;fill-rule:nonzero;stroke:none" />
        <path
           d="m 58.32,87.35 0,-36.472 -0.48,0 0,36.472 0.48,0 z m 2.76,-35.472 -3,-6 -3,6 6,0 z"
           id="path3157"
           style="fill:#000000;fill-opacity:1;fill-rule:nonzero;stroke:none" />
        <path
           d="m 132.12,274.79 29.04,0 0,18.12 -29.04,0 0,-18.12 z"
           id="path3159"
           style="fill:#ffffff;fill-opacity:1;fill-rule:evenodd;stroke:none" />
        <text
           transform="matrix(1,0,0,-1,140.86,280.93)"
           id="text3161">
          <tspan
             x="0 5.7600002"
             y="0"
             id="tspan3163"
             style="font-size:9px;font-variant:normal;font-weight:normal;writing-mode:lr-tb;fill:#000000;fill-opacity:1;fill-rule:nonzero;stroke:none;font-family:Calibri;-inkscape-font-specification:Calibri">NO</tspan>
        </text>
        <path
           d="m 132.12,188.15 29.04,0 0,18.12 -29.04,0 0,-18.12 z"
           id="path3165"
           style="fill:#ffffff;fill-opacity:1;fill-rule:evenodd;stroke:none" />
        <text
           transform="matrix(1,0,0,-1,140.86,194.27)"
           id="text3167">
          <tspan
             x="0 5.7600002"
             y="0"
             id="tspan3169"
             style="font-size:9px;font-variant:normal;font-weight:normal;writing-mode:lr-tb;fill:#000000;fill-opacity:1;fill-rule:nonzero;stroke:none;font-family:Calibri;-inkscape-font-specification:Calibri">NO</tspan>
        </text>
        <path
           d="m 132.12,101.27 29.04,0 0,18.12 -29.04,0 0,-18.12 z"
           id="path3171"
           style="fill:#ffffff;fill-opacity:1;fill-rule:evenodd;stroke:none" />
        <text
           transform="matrix(1,0,0,-1,140.86,107.34)"
           id="text3173">
          <tspan
             x="0 5.760004"
             y="0"
             id="tspan3175"
             style="font-size:9.02400017px;font-variant:normal;font-weight:normal;writing-mode:lr-tb;fill:#000000;fill-opacity:1;fill-rule:nonzero;stroke:none;font-family:Calibri;-inkscape-font-specification:Calibri">NO</tspan>
        </text>
        <path
           d="m 43.56,233.27 29.04,0 0,18.24 -29.04,0 0,-18.24 z"
           id="path3177"
           style="fill:#ffffff;fill-opacity:1;fill-rule:evenodd;stroke:none" />
        <text
           transform="matrix(1,0,0,-1,51.672,239.44)"
           id="text3179">
          <tspan
             x="0 4.4400001 8.8889999"
             y="0"
             id="tspan3181"
             style="font-size:9px;font-variant:normal;font-weight:normal;writing-mode:lr-tb;fill:#000000;fill-opacity:1;fill-rule:nonzero;stroke:none;font-family:Calibri;-inkscape-font-specification:Calibri">YES</tspan>
        </text>
        <path
           d="m 43.56,146.39 29.04,0 0,18.12 -29.04,0 0,-18.12 z"
           id="path3183"
           style="fill:#ffffff;fill-opacity:1;fill-rule:evenodd;stroke:none" />
        <text
           transform="matrix(1,0,0,-1,51.672,152.51)"
           id="text3185">
          <tspan
             x="0 4.4399881 8.8889999"
             y="0"
             id="tspan3187"
             style="font-size:9.02400017px;font-variant:normal;font-weight:normal;writing-mode:lr-tb;fill:#000000;fill-opacity:1;fill-rule:nonzero;stroke:none;font-family:Calibri;-inkscape-font-specification:Calibri">YES</tspan>
        </text>
        <path
           d="m 43.56,59.39 29.04,0 0,18.12 -29.04,0 0,-18.12 z"
           id="path3189"
           style="fill:#ffffff;fill-opacity:1;fill-rule:evenodd;stroke:none" />
        <text
           transform="matrix(1,0,0,-1,51.672,65.438)"
           id="text3191">
          <tspan
             x="0 4.4400001 8.8889999"
             y="0"
             id="tspan3193"
             style="font-size:9px;font-variant:normal;font-weight:normal;writing-mode:lr-tb;fill:#000000;fill-opacity:1;fill-rule:nonzero;stroke:none;font-family:Calibri;-inkscape-font-specification:Calibri">YES</tspan>
        </text>
        <path
           d="m 43.56,231.35 29.04,0 0,18.12 -29.04,0 0,-18.12 z"
           id="path3195"
           style="fill:#ffffff;fill-opacity:1;fill-rule:evenodd;stroke:none" />
        <text
           transform="matrix(1,0,0,-1,51.672,237.47)"
           id="text3197">
          <tspan
             x="0 4.4400001 8.8889999"
             y="0"
             id="tspan3199"
             style="font-size:9px;font-variant:normal;font-weight:normal;writing-mode:lr-tb;fill:#000000;fill-opacity:1;fill-rule:nonzero;stroke:none;font-family:Calibri;-inkscape-font-specification:Calibri">YES</tspan>
        </text>
      </g>
    </g>
    <g
       transform="matrix(1.2499997,0,0,-1.2499761,2.1482783,1469.8297)"
       id="g3201">
      <g
         id="g3203">
        <g
           clip-path="url(#clipPath3207)"
           id="g3205">
          <path
             d="m 48.12,769.44 0.48,0 0,0.48 -0.48,0 0,-0.48 z"
             id="path3211"
             style="fill:#000000;fill-opacity:1;fill-rule:evenodd;stroke:none" />
          <path
             d="m 48.12,769.44 0.48,0 0,0.48 -0.48,0 0,-0.48 z"
             id="path3213"
             style="fill:#000000;fill-opacity:1;fill-rule:evenodd;stroke:none" />
          <path
             d="m 48.6,769.44 498.22,0 0,0.48 -498.22,0 0,-0.48 z"
             id="path3215"
             style="fill:#000000;fill-opacity:1;fill-rule:evenodd;stroke:none" />
          <path
             d="m 546.82,769.44 0.48004,0 0,0.48 -0.48004,0 0,-0.48 z"
             id="path3217"
             style="fill:#000000;fill-opacity:1;fill-rule:evenodd;stroke:none" />
          <path
             d="m 546.82,769.44 0.48004,0 0,0.48 -0.48004,0 0,-0.48 z"
             id="path3219"
             style="fill:#000000;fill-opacity:1;fill-rule:evenodd;stroke:none" />
          <path
             d="m 48.12,754.68 0.48,0 0,14.76 -0.48,0 0,-14.76 z"
             id="path3221"
             style="fill:#000000;fill-opacity:1;fill-rule:evenodd;stroke:none" />
          <path
             d="m 546.82,754.68 0.48004,0 0,14.76 -0.48004,0 0,-14.76 z"
             id="path3223"
             style="fill:#000000;fill-opacity:1;fill-rule:evenodd;stroke:none" />
        </g>
      </g>
      <text
         transform="matrix(1,0,0,-1,54,743.62)"
         id="text3225">
        <tspan
           x="0"
           y="0"
           id="tspan3227"
           style="font-size:12px;font-variant:normal;font-weight:bold;writing-mode:lr-tb;fill:#000000;fill-opacity:1;fill-rule:nonzero;stroke:none;font-family:Arial;-inkscape-font-specification:Arial Bold">I</tspan>
      </text>
      <text
         transform="matrix(1,0,0,-1,57.36,743.62)"
         id="text3229">
        <tspan
           x="0 8.0279999 11.364 20.028 23.364 26.736 29.976 34.043999 37.380001"
           y="0"
           id="tspan3231"
           style="font-size:12px;font-variant:normal;font-weight:bold;writing-mode:lr-tb;fill:#000000;fill-opacity:1;fill-rule:nonzero;stroke:none;font-family:Arial;-inkscape-font-specification:Arial Bold">P Bill: I</tspan>
      </text>
      <text
         transform="matrix(1,0,0,-1,98.184,743.62)"
         id="text3233">
        <tspan
           x="0 7.3319998 11.28 17.988001 22.548 29.256001 35.964001 43.296001 47.243999 50.580002 57.911999 65.244003 68.711998 77.112 84.444 88.391998 95.723999 103.056 107.724 111.06 117.78 124.488 128.48399 131.82001 139.15199 146.48399"
           y="0"
           id="tspan3235"
           style="font-size:12px;font-variant:normal;font-weight:bold;writing-mode:lr-tb;fill:#000000;fill-opacity:1;fill-rule:nonzero;stroke:none;font-family:Arial;-inkscape-font-specification:Arial Bold">nterception Authorisations</tspan>
      </text>
      <path
         d="m 54,741.1 197.33,0 0,1.2 -197.33,0 0,-1.2 z"
         id="path3237"
         style="fill:#000000;fill-opacity:1;fill-rule:evenodd;stroke:none" />
      <g
         id="g3239">
        <g
           clip-path="url(#clipPath3243)"
           id="g3241">
          <path
             d="m 48.12,740.86 0.48,0 0,13.824 -0.48,0 0,-13.824 z"
             id="path3247"
             style="fill:#000000;fill-opacity:1;fill-rule:evenodd;stroke:none" />
          <path
             d="m 546.82,740.86 0.48004,0 0,13.824 -0.48004,0 0,-13.824 z"
             id="path3249"
             style="fill:#000000;fill-opacity:1;fill-rule:evenodd;stroke:none" />
        </g>
      </g>
      <g
         id="g3251">
        <g
           clip-path="url(#clipPath3255)"
           id="g3253">
          <path
             d="m 48.12,727.06 0.48,0 0,13.8 -0.48,0 0,-13.8 z"
             id="path3259"
             style="fill:#000000;fill-opacity:1;fill-rule:evenodd;stroke:none" />
          <path
             d="m 546.82,727.06 0.48004,0 0,13.8 -0.48004,0 0,-13.8 z"
             id="path3261"
             style="fill:#000000;fill-opacity:1;fill-rule:evenodd;stroke:none" />
        </g>
      </g>
      <g
         id="g3263">
        <g
           clip-path="url(#clipPath3267)"
           id="g3265">
          <path
             d="m 48.12,713.26 0.48,0 0,13.8 -0.48,0 0,-13.8 z"
             id="path3271"
             style="fill:#000000;fill-opacity:1;fill-rule:evenodd;stroke:none" />
          <path
             d="m 546.82,713.26 0.48004,0 0,13.8 -0.48004,0 0,-13.8 z"
             id="path3273"
             style="fill:#000000;fill-opacity:1;fill-rule:evenodd;stroke:none" />
        </g>
      </g>
      <g
         id="g3275">
        <g
           clip-path="url(#clipPath3279)"
           id="g3277">
          <path
             d="m 48.12,699.46 0.48,0 0,13.8 -0.48,0 0,-13.8 z"
             id="path3283"
             style="fill:#000000;fill-opacity:1;fill-rule:evenodd;stroke:none" />
          <path
             d="m 546.82,699.46 0.48004,0 0,13.8 -0.48004,0 0,-13.8 z"
             id="path3285"
             style="fill:#000000;fill-opacity:1;fill-rule:evenodd;stroke:none" />
        </g>
      </g>
      <g
         id="g3287">
        <g
           clip-path="url(#clipPath3291)"
           id="g3289">
          <path
             d="m 48.12,685.66 0.48,0 0,13.8 -0.48,0 0,-13.8 z"
             id="path3295"
             style="fill:#000000;fill-opacity:1;fill-rule:evenodd;stroke:none" />
          <path
             d="m 546.82,685.66 0.48004,0 0,13.8 -0.48004,0 0,-13.8 z"
             id="path3297"
             style="fill:#000000;fill-opacity:1;fill-rule:evenodd;stroke:none" />
        </g>
      </g>
      <g
         id="g3299">
        <g
           clip-path="url(#clipPath3303)"
           id="g3301">
          <path
             d="m 48.12,671.86 0.48,0 0,13.8 -0.48,0 0,-13.8 z"
             id="path3307"
             style="fill:#000000;fill-opacity:1;fill-rule:evenodd;stroke:none" />
          <path
             d="m 546.82,671.86 0.48004,0 0,13.8 -0.48004,0 0,-13.8 z"
             id="path3309"
             style="fill:#000000;fill-opacity:1;fill-rule:evenodd;stroke:none" />
        </g>
      </g>
      <g
         id="g3311">
        <g
           clip-path="url(#clipPath3315)"
           id="g3313">
          <path
             d="m 48.12,658.06 0.48,0 0,13.8 -0.48,0 0,-13.8 z"
             id="path3319"
             style="fill:#000000;fill-opacity:1;fill-rule:evenodd;stroke:none" />
          <path
             d="m 546.82,658.06 0.48004,0 0,13.8 -0.48004,0 0,-13.8 z"
             id="path3321"
             style="fill:#000000;fill-opacity:1;fill-rule:evenodd;stroke:none" />
        </g>
      </g>
      <g
         id="g3323">
        <g
           clip-path="url(#clipPath3327)"
           id="g3325">
          <path
             d="m 48.12,644.26 0.48,0 0,13.8 -0.48,0 0,-13.8 z"
             id="path3331"
             style="fill:#000000;fill-opacity:1;fill-rule:evenodd;stroke:none" />
          <path
             d="m 546.82,644.26 0.48004,0 0,13.8 -0.48004,0 0,-13.8 z"
             id="path3333"
             style="fill:#000000;fill-opacity:1;fill-rule:evenodd;stroke:none" />
        </g>
      </g>
      <g
         id="g3335">
        <g
           clip-path="url(#clipPath3339)"
           id="g3337">
          <path
             d="m 48.12,630.46 0.48,0 0,13.8 -0.48,0 0,-13.8 z"
             id="path3343"
             style="fill:#000000;fill-opacity:1;fill-rule:evenodd;stroke:none" />
          <path
             d="m 546.82,630.46 0.48004,0 0,13.8 -0.48004,0 0,-13.8 z"
             id="path3345"
             style="fill:#000000;fill-opacity:1;fill-rule:evenodd;stroke:none" />
        </g>
      </g>
      <g
         id="g3347">
        <g
           clip-path="url(#clipPath3351)"
           id="g3349">
          <path
             d="m 48.12,616.66 0.48,0 0,13.8 -0.48,0 0,-13.8 z"
             id="path3355"
             style="fill:#000000;fill-opacity:1;fill-rule:evenodd;stroke:none" />
          <path
             d="m 546.82,616.66 0.48004,0 0,13.8 -0.48004,0 0,-13.8 z"
             id="path3357"
             style="fill:#000000;fill-opacity:1;fill-rule:evenodd;stroke:none" />
        </g>
      </g>
      <g
         id="g3359">
        <g
           clip-path="url(#clipPath3363)"
           id="g3361">
          <path
             d="m 48.12,602.86 0.48,0 0,13.8 -0.48,0 0,-13.8 z"
             id="path3367"
             style="fill:#000000;fill-opacity:1;fill-rule:evenodd;stroke:none" />
          <path
             d="m 546.82,602.86 0.48004,0 0,13.8 -0.48004,0 0,-13.8 z"
             id="path3369"
             style="fill:#000000;fill-opacity:1;fill-rule:evenodd;stroke:none" />
        </g>
      </g>
      <g
         id="g3371">
        <g
           clip-path="url(#clipPath3375)"
           id="g3373">
          <path
             d="m 48.12,589.06 0.48,0 0,13.8 -0.48,0 0,-13.8 z"
             id="path3379"
             style="fill:#000000;fill-opacity:1;fill-rule:evenodd;stroke:none" />
          <path
             d="m 546.82,589.06 0.48004,0 0,13.8 -0.48004,0 0,-13.8 z"
             id="path3381"
             style="fill:#000000;fill-opacity:1;fill-rule:evenodd;stroke:none" />
        </g>
      </g>
      <g
         id="g3383">
        <g
           clip-path="url(#clipPath3387)"
           id="g3385">
          <path
             d="m 48.12,575.26 0.48,0 0,13.8 -0.48,0 0,-13.8 z"
             id="path3391"
             style="fill:#000000;fill-opacity:1;fill-rule:evenodd;stroke:none" />
          <path
             d="m 546.82,575.26 0.48004,0 0,13.8 -0.48004,0 0,-13.8 z"
             id="path3393"
             style="fill:#000000;fill-opacity:1;fill-rule:evenodd;stroke:none" />
        </g>
      </g>
      <g
         id="g3395">
        <g
           clip-path="url(#clipPath3399)"
           id="g3397">
          <path
             d="m 48.12,561.43 0.48,0 0,13.824 -0.48,0 0,-13.824 z"
             id="path3403"
             style="fill:#000000;fill-opacity:1;fill-rule:evenodd;stroke:none" />
          <path
             d="m 546.82,561.43 0.48004,0 0,13.824 -0.48004,0 0,-13.824 z"
             id="path3405"
             style="fill:#000000;fill-opacity:1;fill-rule:evenodd;stroke:none" />
        </g>
      </g>
      <g
         id="g3407">
        <g
           clip-path="url(#clipPath3411)"
           id="g3409">
          <path
             d="m 48.12,547.63 0.48,0 0,13.8 -0.48,0 0,-13.8 z"
             id="path3415"
             style="fill:#000000;fill-opacity:1;fill-rule:evenodd;stroke:none" />
          <path
             d="m 546.82,547.63 0.48004,0 0,13.8 -0.48004,0 0,-13.8 z"
             id="path3417"
             style="fill:#000000;fill-opacity:1;fill-rule:evenodd;stroke:none" />
        </g>
      </g>
      <g
         id="g3419">
        <g
           clip-path="url(#clipPath3423)"
           id="g3421">
          <path
             d="m 48.12,533.83 0.48,0 0,13.8 -0.48,0 0,-13.8 z"
             id="path3427"
             style="fill:#000000;fill-opacity:1;fill-rule:evenodd;stroke:none" />
          <path
             d="m 546.82,533.83 0.48004,0 0,13.8 -0.48004,0 0,-13.8 z"
             id="path3429"
             style="fill:#000000;fill-opacity:1;fill-rule:evenodd;stroke:none" />
        </g>
      </g>
      <g
         id="g3431">
        <g
           clip-path="url(#clipPath3435)"
           id="g3433">
          <path
             d="m 48.12,520.03 0.48,0 0,13.8 -0.48,0 0,-13.8 z"
             id="path3439"
             style="fill:#000000;fill-opacity:1;fill-rule:evenodd;stroke:none" />
          <path
             d="m 546.82,520.03 0.48004,0 0,13.8 -0.48004,0 0,-13.8 z"
             id="path3441"
             style="fill:#000000;fill-opacity:1;fill-rule:evenodd;stroke:none" />
        </g>
      </g>
      <g
         id="g3443">
        <g
           clip-path="url(#clipPath3447)"
           id="g3445">
          <path
             d="m 48.12,506.23 0.48,0 0,13.8 -0.48,0 0,-13.8 z"
             id="path3451"
             style="fill:#000000;fill-opacity:1;fill-rule:evenodd;stroke:none" />
          <path
             d="m 546.82,506.23 0.48004,0 0,13.8 -0.48004,0 0,-13.8 z"
             id="path3453"
             style="fill:#000000;fill-opacity:1;fill-rule:evenodd;stroke:none" />
        </g>
      </g>
      <g
         id="g3455">
        <g
           clip-path="url(#clipPath3459)"
           id="g3457">
          <path
             d="m 48.12,492.43 0.48,0 0,13.8 -0.48,0 0,-13.8 z"
             id="path3463"
             style="fill:#000000;fill-opacity:1;fill-rule:evenodd;stroke:none" />
          <path
             d="m 546.82,492.43 0.48004,0 0,13.8 -0.48004,0 0,-13.8 z"
             id="path3465"
             style="fill:#000000;fill-opacity:1;fill-rule:evenodd;stroke:none" />
        </g>
      </g>
      <g
         id="g3467">
        <g
           clip-path="url(#clipPath3471)"
           id="g3469">
          <path
             d="m 48.12,478.63 0.48,0 0,13.8 -0.48,0 0,-13.8 z"
             id="path3475"
             style="fill:#000000;fill-opacity:1;fill-rule:evenodd;stroke:none" />
          <path
             d="m 546.82,478.63 0.48004,0 0,13.8 -0.48004,0 0,-13.8 z"
             id="path3477"
             style="fill:#000000;fill-opacity:1;fill-rule:evenodd;stroke:none" />
        </g>
      </g>
      <g
         id="g3479">
        <g
           clip-path="url(#clipPath3483)"
           id="g3481">
          <path
             d="m 48.12,464.83 0.48,0 0,13.8 -0.48,0 0,-13.8 z"
             id="path3487"
             style="fill:#000000;fill-opacity:1;fill-rule:evenodd;stroke:none" />
          <path
             d="m 546.82,464.83 0.48004,0 0,13.8 -0.48004,0 0,-13.8 z"
             id="path3489"
             style="fill:#000000;fill-opacity:1;fill-rule:evenodd;stroke:none" />
        </g>
      </g>
      <g
         id="g3491">
        <g
           clip-path="url(#clipPath3495)"
           id="g3493">
          <path
             d="m 48.12,451.03 0.48,0 0,13.8 -0.48,0 0,-13.8 z"
             id="path3499"
             style="fill:#000000;fill-opacity:1;fill-rule:evenodd;stroke:none" />
          <path
             d="m 546.82,451.03 0.48004,0 0,13.8 -0.48004,0 0,-13.8 z"
             id="path3501"
             style="fill:#000000;fill-opacity:1;fill-rule:evenodd;stroke:none" />
        </g>
      </g>
      <g
         id="g3503">
        <g
           clip-path="url(#clipPath3507)"
           id="g3505">
          <path
             d="m 48.12,437.23 0.48,0 0,13.8 -0.48,0 0,-13.8 z"
             id="path3511"
             style="fill:#000000;fill-opacity:1;fill-rule:evenodd;stroke:none" />
          <path
             d="m 546.82,437.23 0.48004,0 0,13.8 -0.48004,0 0,-13.8 z"
             id="path3513"
             style="fill:#000000;fill-opacity:1;fill-rule:evenodd;stroke:none" />
        </g>
      </g>
      <g
         id="g3515">
        <g
           clip-path="url(#clipPath3519)"
           id="g3517">
          <path
             d="m 48.12,423.43 0.48,0 0,13.8 -0.48,0 0,-13.8 z"
             id="path3523"
             style="fill:#000000;fill-opacity:1;fill-rule:evenodd;stroke:none" />
          <path
             d="m 546.82,423.43 0.48004,0 0,13.8 -0.48004,0 0,-13.8 z"
             id="path3525"
             style="fill:#000000;fill-opacity:1;fill-rule:evenodd;stroke:none" />
        </g>
      </g>
      <g
         id="g3527">
        <g
           clip-path="url(#clipPath3531)"
           id="g3529">
          <path
             d="m 48.12,378.05 0.48,0 0,0.48001 -0.48,0 0,-0.48001 z"
             id="path3535"
             style="fill:#000000;fill-opacity:1;fill-rule:evenodd;stroke:none" />
          <path
             d="m 48.12,378.05 0.48,0 0,0.48001 -0.48,0 0,-0.48001 z"
             id="path3537"
             style="fill:#000000;fill-opacity:1;fill-rule:evenodd;stroke:none" />
          <path
             d="m 48.6,378.05 498.22,0 0,0.48001 -498.22,0 0,-0.48001 z"
             id="path3539"
             style="fill:#000000;fill-opacity:1;fill-rule:evenodd;stroke:none" />
          <path
             d="m 546.82,378.05 0.48004,0 0,0.48001 -0.48004,0 0,-0.48001 z"
             id="path3541"
             style="fill:#000000;fill-opacity:1;fill-rule:evenodd;stroke:none" />
          <path
             d="m 546.82,378.05 0.48004,0 0,0.48001 -0.48004,0 0,-0.48001 z"
             id="path3543"
             style="fill:#000000;fill-opacity:1;fill-rule:evenodd;stroke:none" />
          <path
             d="m 48.12,378.53 0.48,0 0,44.904 -0.48,0 0,-44.904 z"
             id="path3545"
             style="fill:#000000;fill-opacity:1;fill-rule:evenodd;stroke:none" />
          <path
             d="m 546.82,378.53 0.48004,0 0,44.904 -0.48004,0 0,-44.904 z"
             id="path3547"
             style="fill:#000000;fill-opacity:1;fill-rule:evenodd;stroke:none" />
        </g>
      </g>
    </g>
  </g>
</svg>
